<svg width="1920" height="1080" viewBox="0 0 1920 1080" fill="none" xmlns="http://www.w3.org/2000/svg">
<path d="M709.365 197.929C724.803 199.493 739.82 202.599 754.628 207.542C764.031 210.68 773.697 213.576 783.687 214.888C786.038 215.192 787.035 214.825 787.99 212.642C794.056 198.832 801.958 185.976 809.105 172.732C819.222 153.978 824.354 133.314 832.256 113.711C835.604 105.409 838.721 96.9613 842.876 89.0694C845.196 84.6722 844.629 79.6979 847.2 75.5105C848.155 73.9679 847.851 72.9184 850.516 73.7789C853.602 74.7759 857.264 74.7759 860.675 73.4641C862.596 72.7295 864.747 72.761 866.5 74.3352C866.573 76.3291 865.366 75.6365 864.348 75.3636C860.696 75.6575 857.044 76.1297 853.381 76.1927C850.632 76.2452 849.624 76.8433 850.37 79.8763C851.178 83.1715 852.521 86.4038 848.869 89.6571C846.445 91.8085 847.609 96.1008 847.053 99.417C845.825 100.561 844.933 101.831 845.563 103.636C845.164 109.376 842.845 114.718 840.284 119.514C835.593 128.287 832.928 137.953 827.743 146.443C824.889 146.632 825.676 149.245 824.847 150.788C821.468 159.32 817.648 167.61 812.957 175.534C808.979 182.25 806.408 189.649 803.407 196.838C801.392 201.665 798.243 206.199 795.504 210.806C792.734 215.455 793.248 218.414 798.432 219.894C805.285 221.856 811.319 225.509 817.721 228.405C819.138 229.045 821.121 230.2 820.24 231.784C819.201 233.652 817.742 231.742 816.388 231.186C809.042 228.143 802.431 223.588 794.864 220.943C791.81 219.873 790.362 220.566 789.145 223.294C783.488 235.898 776.981 248.114 771.955 261.011C770.842 263.866 768.187 265.713 767.505 269.313C766.802 273.059 768.302 272.566 770.443 272.566C779.248 272.566 788.064 272.839 796.858 272.482C803.879 272.188 810.343 274.728 817.133 275.515C819.243 275.756 818.529 278.044 820.082 279.052C816.903 280.647 814.846 278.201 812.421 277.929C799.985 276.522 787.507 276.785 775.04 276.333C764.724 275.966 765.028 275.714 759.875 284.603C758.385 287.164 758.301 289.913 756.937 292.432C754.313 297.27 753.033 302.622 749.706 307.408C747.723 310.262 745.823 314.418 745.015 318.763C742.99 329.74 737.994 339.983 733.335 349.984C727.878 361.685 725.443 374.205 720.836 386.085C716.229 397.965 712.262 410.107 708.242 422.207C705.272 431.169 703.268 440.489 699.721 449.199C697.15 455.517 695.544 462.286 694.001 468.603C692.133 476.201 687.936 483.715 689.268 492.132C689.541 493.864 691.388 494.483 691.294 496.655C686.655 496.403 687.232 500.003 686.214 503.13C681.828 516.647 679.508 530.678 675.667 544.332C671.627 558.73 667.755 573.171 664.47 587.8C661.93 599.103 658.425 610.227 656.609 621.729C656.284 622.789 656.4 623.418 657.722 622.873C670.987 613.302 684.861 605.924 702.103 610.248C703.415 610.573 705 609.933 706.238 610.353C707.329 610.731 709.071 608.201 709.344 610.877C709.512 612.483 707.917 613.26 706.49 613.365C704.769 613.491 702.827 613.7 701.327 613.06C691.672 608.957 683.003 613.27 674.209 616.104C667.198 618.371 661.815 623.46 655.885 627.553C653.723 629.043 653.43 631.793 652.947 634.028C649.903 648.133 647.185 662.301 644.299 676.426C643.271 681.432 642.054 686.406 640.7 692.378C643.848 690.688 646.23 689.282 648.728 688.096C657.05 684.14 665.792 681.275 674.503 678.347C675.185 679.081 675.143 679.826 674.545 680.582C672.425 681.852 670.504 683.08 667.86 683.73C659.632 685.735 652.286 690.205 644.415 693.249C638.391 695.579 638.895 701.036 637.908 705.433C634.393 721.185 630.688 736.969 628.537 752.942C626.427 768.631 622.366 783.911 620.372 799.611C619.081 809.748 615.398 819.55 613.477 829.635C610.769 843.814 608.702 858.118 606.362 872.359C605.816 875.664 606.215 878.257 610.57 877.732C610.738 879.81 609.615 879.495 608.356 878.928C603.549 880.67 604.714 885.288 604.42 888.573C603.371 900.599 600.558 912.28 598.239 924.044C596.602 932.303 597.578 933.489 606.288 932.576C612.039 931.978 617.507 930.393 623.059 929.05C624.129 929.512 624.706 930.215 624.223 931.432C616.741 934.329 608.922 935.21 600.978 935.756C599.761 935.84 597.851 934.434 597.001 936.375C596.098 938.432 598.564 939.156 599.047 940.699C599.288 941.748 599.016 942.273 597.84 941.885C593.59 947.09 594.408 953.702 592.95 959.683C592.792 960.355 592.75 961.058 592.729 961.751C592.666 964.154 591.858 966.935 589.434 966.683C587.199 966.452 588.374 963.493 588.469 961.814C588.762 956.703 589.245 951.634 590.998 946.702C591.806 944.435 592.54 941.549 589.571 939.765C589.298 939.597 588.804 939.398 588.804 939.23C589.161 932.377 583.389 934.801 580.115 933.447C579.475 932.671 579.527 931.758 580.325 931.348C581.133 930.939 581.794 931.831 582.466 932.261C591.428 932.177 591.344 932.167 592.981 923.414C595.437 910.275 598.743 897.294 600.023 883.924C600.338 880.618 599.131 879.201 596.224 878.603C594.702 878.288 593.17 878.015 591.638 877.721C591.323 877.501 591.218 877.27 591.313 877.029C591.407 876.787 591.502 876.672 591.606 876.672C591.69 876.514 591.795 876.221 591.848 876.231C599.603 877.26 600.275 872.17 601.629 866.272C604.725 852.849 606.383 839.238 608.534 825.679C609.636 818.721 611.053 811.763 613.015 805.005C616.08 794.489 616.667 783.575 618.546 772.892C621.096 758.399 624.937 744.074 626.27 729.476C626.837 723.316 631.727 718.394 629.953 712.024C633.826 709.914 632.357 706.273 632.588 703.082C632.923 698.423 630.856 698.884 627.613 700.322C623.793 702.012 619.742 703.187 615.786 704.583C615.167 703.964 615.167 703.334 615.786 702.715C618.305 699.776 622.145 699.525 625.42 698.486C631.087 696.691 635.085 693.868 635.925 687.655C637.95 672.795 643.313 658.585 644.73 643.62C645.065 640.021 647.805 636.998 647.017 632.706C641.361 637.722 634.414 639.685 628.306 643.201C627.162 643.862 626.805 643.106 626.249 642.518C625.294 642.235 624.612 641.794 625.199 640.64C632.986 639.276 639 634.553 645.223 630.166C647.763 628.372 649.116 626.357 649.83 623.166C652.139 612.903 654.238 602.587 657.008 592.407C659.191 584.347 661.416 576.078 662.455 567.892C663.588 558.94 667.44 550.838 668.542 542.128C669.875 531.644 675.573 522.556 676.969 512.093C677.399 508.85 680.023 505.607 680.442 501.881C680.862 498.145 680.212 495.816 675.563 496.466C667.524 497.589 659.453 498.502 651.373 499.321C642.599 500.223 634.004 503.099 624.937 501.189C622.24 500.622 621.274 499.289 620.351 497.316C632.608 498.019 644.488 495.795 656.463 494.042C663.693 492.982 671.018 491.387 678.438 492.09C681.324 492.363 683.129 490.799 683.402 488.637C684.189 482.404 689.069 477.198 689.121 471.479C689.174 465.728 691.525 461.047 692.364 455.832C693.109 451.172 695.439 447.289 696.782 442.976C697.947 439.271 698.084 436.753 693.34 434.989C684.084 431.537 674.566 430.109 664.869 428.861C659.191 428.137 653.566 427.664 647.847 427.748C643.586 427.811 639.871 429.154 636.481 431.621C634.277 426.069 629.576 429.574 626.081 428.882C623.121 428.294 619.795 431.159 616.478 427.654C621.862 426.783 626.585 425.135 631.601 424.201C635.075 423.561 638.727 423.834 642.001 422.658C645.916 421.242 648.99 418.314 652.202 415.176C654.091 420.014 648.266 421.168 648.35 425.397C653.367 426.289 658.373 423.865 663.441 424.799C669.948 425.996 676.528 426.835 683.035 428.011C688.229 428.945 693.393 430.12 698.545 431.285C700.518 431.736 700.183 429.984 700.456 429.238C702.407 423.823 704.622 418.44 705.892 412.846C707.487 405.825 710.562 399.455 712.923 392.802C715.358 385.959 717.11 378.77 719.629 371.865C724.624 358.149 728.938 344.18 735.077 330.873C738.697 323.034 741.552 314.848 745.131 306.988C749.969 296.346 755.174 285.873 760.211 275.336C757.745 273.489 754.366 274.812 752.099 272.671C751.585 272.178 751.606 271.726 752.172 271.296C753.369 271.296 754.597 271.107 755.762 271.317C760.683 272.188 762.583 269.565 764.934 265.493C771.902 253.424 773.424 239.099 781.295 227.482C782.145 226.233 782.386 224.575 782.953 223.126C784.527 219.138 783.551 217.711 778.944 216.735C767.096 214.227 755.268 211.288 743.777 207.479C731.246 203.323 718.349 201.938 705.419 200.343C703.814 200.143 701.872 201.098 700.718 199.104C703.153 195.652 706.395 197.95 709.302 197.918L709.365 197.929Z" fill="black"/>
<path d="M1214.95 612.42C1211.56 611.465 1212.19 614.771 1212 615.915C1210.08 627.238 1208.6 638.625 1206.76 649.969C1205.76 656.214 1205.03 662.92 1202.95 668.503C1197.17 684.098 1195.52 700.448 1191.83 716.4C1189.38 726.978 1186.71 737.494 1184.1 748.03C1183.48 750.517 1183.51 752.186 1186.72 752.994C1201.81 756.814 1216.81 761.001 1231.91 764.8C1237.39 766.186 1242.5 769.586 1248.62 767.959C1249.87 767.623 1249.42 769.114 1249.56 769.848C1249.86 771.517 1248.98 772.063 1247.48 771.884C1244.21 771.506 1240.74 771.653 1237.69 770.614C1222.58 765.482 1206.97 762.25 1191.57 758.241C1190.91 758.073 1190.28 757.79 1189.65 757.538C1182.37 754.6 1182.48 754.715 1181.16 762.817C1178.92 776.596 1176.33 790.312 1173.97 804.071C1173.07 809.339 1172.47 814.66 1171.55 819.918C1170.95 823.412 1173.65 823.853 1175.76 824.766C1182.44 827.652 1189.51 829.205 1196.54 830.863C1207.37 833.424 1218.41 834.442 1230.42 835.082C1222.83 838.671 1215.64 837.296 1208.81 836.541C1197.37 835.281 1186.38 831.724 1175.47 828.082C1172.29 827.022 1170.4 827.778 1169.95 831.524C1168.26 845.661 1166.4 859.765 1164.6 873.891C1163.95 878.97 1162.92 883.934 1161.14 888.793C1159.73 892.686 1160.93 896.937 1159.6 901.166C1157.9 906.55 1154.49 910.454 1151.39 914.735C1150.87 915.459 1149.84 915.953 1149.16 915.25C1148.48 914.546 1148.1 913.424 1149.35 912.605C1153.83 909.667 1151.54 905.143 1151.82 901.292C1151.97 899.329 1150.16 900.127 1149.05 900.295C1145.52 900.851 1141.99 901.449 1138.47 902.027C1137.46 902.667 1136.6 902.572 1135.93 901.523C1135.83 898.605 1138.4 899.319 1139.92 898.647C1143.6 897.031 1148.17 898.081 1151.3 894.827C1151.64 894.481 1152.01 894.219 1152.44 894.009C1155.14 893.012 1153.56 889.37 1156 888.216C1158.01 882.654 1156.86 876.693 1157.51 870.396C1160.21 871.676 1160.14 873.628 1161.06 876.158C1162.67 861.665 1164.16 848.137 1165.65 834.61C1165.7 834.096 1165.61 833.56 1165.66 833.036C1166.36 824.808 1166.04 825.459 1158.45 821.744C1149.22 817.231 1139.04 813.337 1134.93 802.402C1135.39 801.898 1135.9 801.835 1136.46 802.224C1143.22 809.916 1152.23 814.439 1160.83 819.519C1165.47 822.258 1167.86 820.778 1168.57 815.646C1171.19 797.071 1173.68 778.454 1177.82 760.141C1179.03 754.789 1177.59 752.459 1172.44 750.811C1162.95 747.768 1153.6 744.221 1144.36 740.474C1138.47 738.081 1132.69 735.122 1130.89 728.08C1130.42 727.104 1130.81 726.747 1131.8 726.81C1136.6 733.317 1143.18 737.032 1150.74 739.53C1159.54 742.437 1168.26 745.627 1176.85 749.069C1179.49 750.119 1180.1 749.667 1180.71 747.17C1184.31 732.288 1187.34 717.313 1190.12 702.253C1192.64 688.61 1195.89 675.083 1199.5 661.681C1203.85 645.53 1205.57 628.959 1208.29 612.546C1208.88 608.925 1205.5 607.928 1203.38 606.522C1199.47 603.93 1198.03 600.467 1198.11 595.996C1198.13 594.642 1198.87 594.181 1200.28 593.383C1200.28 598.274 1202.47 601.947 1205.98 604.917C1208.16 606.764 1209.45 606.312 1209.7 603.5C1211.07 588.377 1213.96 573.444 1215.1 558.268C1216.42 540.554 1218.54 522.902 1220.19 505.219C1220.42 502.71 1221.37 500.013 1219.46 497.621C1219.19 497.285 1219.07 496.487 1219.27 496.141C1224.91 486.769 1224.36 475.918 1226.41 465.717C1228.54 455.097 1229.99 444.319 1230.85 433.478C1231.33 427.507 1233.17 421.64 1233.64 415.669C1233.9 412.353 1235.54 408.48 1231.96 405.458C1230.79 404.471 1230.92 401.816 1232.78 401.743C1236.88 401.575 1235.78 398.752 1236.08 396.569C1238.23 381.037 1240.45 365.505 1242.46 349.952C1244.06 337.464 1246.29 325.122 1249.58 312.959C1252.32 302.864 1254.83 292.715 1257.38 282.567C1258.07 279.786 1258.67 276.963 1259.06 274.13C1259.33 272.094 1259.02 270.131 1256.11 270.446C1254.77 270.719 1253.13 271.8 1252.76 269.271C1253.74 267.917 1254.7 268.515 1256.14 268.672C1260.17 269.124 1261.1 265.335 1261.78 262.554C1264.58 250.968 1267.15 239.33 1269.5 227.649C1271.43 218.078 1272.95 208.434 1274.61 198.811C1275.47 193.836 1273.81 192.084 1269.36 194.298C1261.56 198.181 1252.52 198.37 1244.99 203.103C1240.85 205.705 1235.9 207.017 1231.73 209.588C1227.56 212.149 1225.34 210.879 1223.12 206.828C1230.98 206.482 1237.06 202.001 1244.01 199.912C1254.11 196.88 1263.48 191.674 1273.98 189.481C1277.42 188.767 1277.13 184.286 1277.9 181.285C1278.33 179.595 1277.22 177.244 1280.27 177.066C1282.63 177.58 1281.39 179.102 1281.18 180.33C1280.5 187.288 1280.39 186.427 1287.97 185.545C1303.23 183.761 1317.3 177.003 1332.7 175.817C1340.67 175.198 1348.01 171.273 1355.65 168.912C1356.56 168.628 1357.28 168.418 1357.76 169.468C1358.27 169.951 1358.29 170.444 1357.81 170.958C1349.09 175.807 1339.42 177.192 1329.92 179.616C1316.86 182.953 1303.19 183.751 1290.64 188.946C1288.23 189.943 1285.68 189.796 1283.23 190.499C1279.06 191.706 1278.29 194.34 1277.99 197.562C1276.74 210.564 1274.22 223.41 1272.07 236.234C1270.73 244.262 1269.37 252.553 1266.99 260.487C1266.02 263.751 1266.4 264.674 1269.94 263.604C1276.5 261.62 1283.69 262.974 1290.09 259.993C1290.12 259.983 1290.4 260.518 1290.58 260.802C1290.93 261.043 1291.04 261.263 1290.91 261.463C1290.78 261.662 1290.66 261.767 1290.52 261.767C1286.99 264.254 1282.83 264.884 1278.81 264.685C1274.93 264.496 1271.98 266.343 1268.67 267.508C1262.1 269.827 1261.93 276.501 1260.89 281.36C1259.04 290.039 1256.27 298.393 1253.79 306.841C1252.91 309.853 1253.23 312.907 1252.03 315.982C1248.26 325.574 1247.96 336.026 1245.58 346.006C1244.96 348.578 1245.94 351.506 1245.27 354.35C1243.4 362.22 1241.01 370.102 1243.29 378.33C1239.74 381.31 1243.81 386.305 1241.83 388.131C1238.33 391.364 1239.9 395.415 1238.18 398.689C1237.29 400.4 1238.01 401.334 1239.82 401.48C1242.89 401.732 1246.22 402.519 1248.97 402.215C1260.77 400.903 1272.71 401.25 1284.44 398.983C1286.67 398.552 1288.92 397.041 1292.34 397.86C1287.06 401.984 1280.63 400.064 1275.82 403.065C1276.89 405.342 1279.42 403.999 1281.87 406.046C1271.63 405.038 1263.08 406.413 1254.8 410.474C1250.25 412.71 1249.17 409.131 1249.7 405.196C1248.13 405.384 1246.88 405.594 1245.62 405.668C1239.26 406.056 1236.21 408.375 1236.21 414.389C1236.21 422.658 1234.3 430.676 1233.73 438.862C1233.19 446.785 1230.87 454.614 1230.64 462.517C1230.32 473.42 1227.4 483.904 1226.6 494.693C1226.24 499.52 1228.71 500.696 1232.68 501.042C1239.56 501.64 1246.08 499.489 1252.74 498.555C1256.94 497.967 1260.74 495.973 1264.65 494.451C1269 492.762 1274.46 493.927 1279.45 494C1280.15 494.011 1281.01 494.808 1280.92 495.826C1280.79 497.295 1279.87 497.726 1278.45 497.935C1272.61 498.817 1266.73 499.489 1260.96 500.979C1257.82 501.787 1255.25 503.34 1252.68 504.946C1245.75 509.249 1237.85 509.994 1230.17 511.526C1229.19 511.725 1227.69 511.012 1226.91 510.235C1222.59 505.943 1222.64 512.344 1222.71 512.544C1225.54 520.467 1220.72 527.824 1221.18 535.579C1221.97 548.865 1218.63 561.879 1217.93 575.112C1217.43 584.557 1215.6 593.992 1213.55 603.258C1212.62 607.488 1213.35 609.838 1217.02 611.591C1216.87 613.26 1215.98 612.987 1214.96 612.378L1214.95 612.42Z" fill="#010101"/>
<path d="M1152.85 894.649C1152.64 894.649 1152.42 894.649 1152.21 894.649C1148.34 893.683 1144.48 894.523 1140.82 895.404C1136.37 896.475 1131.91 897 1127.39 897.461C1124.23 897.787 1120.98 899.35 1118.5 895.635C1117.78 894.554 1115.85 894.775 1114.51 895.069C1109.09 896.244 1103.39 896.328 1098.33 898.983C1097.23 899.56 1096.07 899.97 1094.82 899.844C1084.02 898.805 1074.45 903.769 1064.42 905.658C1074.68 909.792 1084.64 906.854 1094.65 904.419C1097.52 903.727 1099.43 901.607 1101.77 900.137C1105.2 897.976 1106.6 898.668 1107.81 902.866C1107.69 903.359 1107.48 903.821 1107.19 904.23C1103.22 907.788 1098.59 909.897 1093.18 910.391C1096.78 910.989 1100.43 910.726 1103.3 908.984C1110.19 904.776 1117.79 904.766 1125.37 904.23C1126.57 904.461 1128.21 904.188 1127.92 906.277C1115.57 911.02 1102.41 912.08 1089.63 914.914C1082.93 916.404 1076.8 913.57 1070.38 914.956C1066.86 915.711 1063.57 918.293 1059.66 916.677C1058.34 914.064 1056.1 915.711 1054.27 915.533C1050.26 912.615 1046 915.648 1041.73 915.092C1032.96 913.959 1024.67 918.052 1016.12 919.668C1015.52 919.783 1015 920.276 1014.44 920.602C1007.9 919.783 1002.21 922.249 996.631 925.156C995.424 925.786 994.763 926.668 995.141 928.084C995.141 928.567 994.973 928.987 994.648 929.344C993.693 931.527 991.94 930.372 990.45 930.33C988.467 931.075 988.351 928.756 987.102 928.294C986.494 928.651 985.875 929.008 985.266 929.365C984.468 930.718 983.408 931.285 981.897 930.488C975.726 932.083 969.02 932.335 964.256 937.498C964.76 938.264 965.589 938.831 965.61 939.87C951.893 943.669 938.198 947.552 924.45 951.225C919.182 952.631 912.906 953.093 908.729 955.171C901.572 958.728 893.061 959.211 886.691 965.403C886.481 962.559 885.641 960.355 889.021 959.673C893.481 958.77 898.906 959.61 900.103 952.757C900.313 951.55 904.993 951.676 905.298 948.045C902.422 948.675 900.008 947.027 896.955 946.838C901.981 943.69 907.208 945.925 912.119 945.054C914.501 944.634 916.726 944.351 919.003 943.322C920.504 942.64 923.422 940.814 924.261 944.666C924.398 945.295 924.356 945.915 925.5 945.642C935.207 943.28 945.46 943.008 954.485 938.149C956.521 937.047 958.085 935.074 959.869 933.5C960.027 932.901 960.625 932.765 961.003 932.387C970.647 929.239 980.365 926.3 989.894 922.837C994.396 921.2 998.877 919.405 1003.3 917.59C1008.97 915.26 1014.95 914.158 1020.76 912.605C1024.57 911.587 1026.16 910.212 1026.52 906.329C1027.21 910.044 1029.87 910.002 1032.02 909.131C1037.4 906.959 1043.08 905.972 1048.61 904.409C1055.01 902.604 1061.52 900.862 1068.1 900.106C1071.01 899.77 1071.87 897.241 1074.07 896.842C1078.5 896.024 1082.06 891.333 1087.5 894.491C1089.97 895.929 1093.52 894.491 1096.1 893.452C1103.2 890.598 1110.69 891.238 1117.95 890.682C1122.2 890.357 1126.68 891.689 1131.22 891.889C1139.66 892.256 1147 890.556 1154.01 886.285C1155.17 889.297 1155.01 892.13 1152.8 894.649H1152.85Z" fill="#010101"/>
<path d="M828.782 690.079C818.34 698.045 811.561 709.158 803.753 719.38C797.362 727.755 790.834 736.045 784.705 744.609C778.535 753.214 773.182 762.429 766.707 770.782C760.862 778.317 756.853 787.122 750.063 793.965C748.741 795.297 747.628 794.731 746.505 794.92C753.043 785.002 759.34 775.043 766.036 765.356C777.748 748.439 788.872 731.113 802.242 715.35C807.898 708.676 812.558 701.046 818.487 694.582C823.546 689.072 828.184 683.3 834.922 679.092C842.131 674.59 847.641 667.422 854.074 661.618C865.566 651.26 876.721 640.493 889.923 632.213C891.015 631.531 891.655 630.166 892.704 629.369C893.775 628.55 895.087 628.025 896.545 627.238C897.542 631.111 894.09 632.286 892.358 633.545C874.622 646.538 859.059 661.923 843.957 677.727C839.938 681.936 835.425 684.885 830.776 687.949C829.737 688.306 830.797 690.625 828.793 690.069L828.782 690.079Z" fill="#020202"/>
<path d="M1016.62 312.277C1025.59 304.06 1034.33 295.612 1044.12 288.329C1052.72 281.927 1058.06 272.618 1064.69 264.475C1075.27 251.482 1084.66 237.588 1094.72 224.197C1101.49 215.192 1108.58 206.366 1114.78 196.953C1120.6 188.117 1125.79 178.85 1131.25 169.783C1133.02 169.835 1132.64 170.78 1132.09 171.798C1130.73 182.47 1123.9 190.362 1118.19 198.789C1113.11 206.283 1107.93 213.713 1102.48 220.943C1092.2 234.586 1082.42 248.596 1071.37 261.652C1067.92 265.723 1065.55 270.719 1062.65 275.263C1057.54 283.291 1049.02 287.573 1042.22 293.765C1035.15 300.208 1027.55 306.085 1020.55 312.613C1019.03 314.03 1018.09 313.683 1016.71 313.547C1016.15 313.159 1016.12 312.739 1016.62 312.288V312.277Z" fill="#020202"/>
<path d="M816.273 961.887C805.673 966.652 794.916 970.996 783.792 974.428C782.942 975.068 782.092 974.942 781.252 974.428C780.549 973.935 779.804 973.547 778.891 973.693C778.44 973.735 778.052 973.61 777.716 973.316C773.78 970.629 770.002 973.568 766.298 973.998C757.241 975.068 748.31 973.903 739.432 973.137C728.077 972.151 716.869 969.538 705.535 968.257C693.371 966.883 681.282 965.067 669.224 963.01C654.468 960.502 641.046 953.701 626.689 949.913C625.535 949.609 622.429 949.808 623.331 947.1C624.045 944.949 626.71 945.852 627.812 946.345C633.595 948.958 639.745 950.291 645.747 952.127C655.434 955.097 664.889 958.707 674.849 960.911C683.318 962.79 691.997 962.874 700.392 964.668C713.426 967.449 726.786 967.554 739.831 970.283C749.402 972.277 759.193 971.196 768.984 970.692C779.846 970.146 789.753 966.033 800.248 964.29C805.138 963.482 810.186 961.048 815.297 959.736C817.228 959.715 816.85 960.754 816.273 961.877V961.887Z" fill="#020202"/>
<path d="M361.861 1004.34C360.087 998.649 361.504 993.759 362.134 989.141C363.613 978.343 365.523 967.502 368.535 957.049C371.274 947.531 371.411 937.613 374.8 928.179C379.848 914.148 383.889 899.76 389.209 885.802C391.634 879.432 393.355 872.81 396.44 866.671C397.867 863.837 399.578 861.486 403.251 859.587C395.296 876.966 387.95 893.725 383.259 912.028C388.128 909.782 386.89 902.394 392.998 901.943C393.89 902.415 393.596 903.475 393.134 904.031C384.907 913.885 382 925.933 379.943 938.065C379.46 940.898 376.973 940.426 376.553 942.861C374.16 956.86 369.448 970.325 366.289 984.136C365.271 988.575 363.76 993.192 364.033 997.936C364.159 1000.12 363.403 1001.91 361.85 1004.34H361.861Z" fill="#020202"/>
<path d="M438.24 1006.76C435.196 997.6 438.901 989.425 441.693 981.313C445.628 969.863 450.288 958.665 454.548 947.321C455.293 945.348 456.332 943.795 457.833 942.304C463.888 936.302 466.806 928.42 470.385 920.906C473.061 915.281 475.642 909.635 477.741 903.779C478.675 901.187 480.711 899.487 482.674 897.797C483.261 897.293 485.014 897.168 485.381 897.598C486.095 898.437 485.581 899.308 484.416 899.991C481.897 901.491 480.27 903.622 480.921 906.875C481.047 907.494 480.921 908.365 480.543 908.869C475.369 915.953 474.163 924.642 470.909 932.482C467.32 941.129 463.07 949.525 458.62 957.763C456.637 961.446 455.65 965.434 454.139 969.223C451.914 974.837 449.553 980.494 446.384 985.426C442.112 992.08 438.135 998.503 438.229 1006.77L438.24 1006.76Z" fill="#010101"/>
<path d="M896.115 695.715C895.108 699.65 891.099 701.12 889.094 704.299C882.504 714.762 874.024 723.987 868.588 735.227C868.294 735.835 867.832 736.665 867.297 736.811C856.876 739.509 854.326 749.846 848.082 756.583C845.469 759.396 843.38 762.68 840.861 765.587C832.518 775.19 825.33 785.674 818.088 796.074C813.838 802.171 808.811 807.838 805.778 814.765C805.107 816.297 803.826 817.168 802.504 818.028C801.549 818.217 800.982 818.06 801.497 816.916C802.966 811.28 806.859 806.978 809.871 802.245C815.57 793.272 821.478 784.404 827.869 775.914C835.499 765.787 843.705 756.1 851.713 746.267C853.36 744.252 855.186 742.405 854.987 739.519C854.399 738.302 855.176 737.819 856.11 737.42C864.338 731.228 871.988 724.68 870.928 712.842C874.265 714.521 872.198 717.501 872.565 721.741C880.405 710.523 887.824 700.92 895.853 691.8C896.839 693.049 896.535 694.382 896.105 695.725L896.115 695.715Z" fill="#020202"/>
<path d="M951.211 278.821C948.241 278.474 947.8 277.225 947.276 275.567C943.361 263.226 943.697 250.706 945.124 238.039C946.184 228.625 946.699 219.159 948.441 209.819C951.043 195.84 953.52 181.841 956.007 167.841C956.994 162.332 954.087 157.074 954.905 151.165C959.302 159.771 960.73 168.345 958.862 177.58C954.937 197.079 951.379 216.683 949.417 236.444C948.052 250.276 945.439 264.433 951.201 278.821H951.211Z" fill="#020202"/>
<path d="M608.398 878.939C609.321 878.886 610.171 878.697 610.612 877.742C621.6 878.445 632.074 875.832 642.474 872.789C653.965 869.431 664.837 864.729 675.384 858.978C686.739 852.797 698.22 846.92 709.082 839.836C715.064 835.932 721.854 833.392 729.127 832.647C730.921 832.469 733.062 832.227 733.188 834.589C733.314 836.866 731.11 835.607 729.956 835.89C720.028 838.346 711.454 843.603 702.534 848.347C695.104 852.303 688.324 857.278 680.422 860.657C673.695 863.533 667.356 867.856 660.503 870.795C644.237 877.774 627.194 880.744 609.5 879.799C609.112 879.778 608.755 879.222 608.377 878.918L608.398 878.939Z" fill="#020202"/>
<path d="M896.493 254.316C893.628 254.788 891.938 254.138 891.099 252.217C886.743 242.394 885.642 231.921 885.589 221.374C885.547 211.813 885.558 202.179 886.712 192.724C888.118 181.211 887.279 169.604 889.241 158.039C890.196 152.404 892.432 146.842 892.232 140.954C892.18 139.527 892.662 137.9 894.572 138.299C897.144 138.834 895.097 140.681 894.95 141.511C893.219 150.998 893.397 160.642 892.453 170.182C891.13 183.415 890.144 196.722 889.86 210.019C889.65 219.705 890.175 229.434 891.581 239.109C892.096 242.688 893.24 246.057 893.743 249.551C894.016 251.42 895.139 252.396 896.503 254.316H896.493Z" fill="#020202"/>
<path d="M950.686 822.216C945.932 812.76 943.718 802.476 941.378 792.285C936.319 770.31 935.837 747.894 936.991 725.551C937.463 716.337 937.946 706.944 939.772 697.793C940.087 696.198 938.229 694.917 939.846 692.871C943.55 695.463 943.204 699.304 943.151 702.914C943.015 711.688 941.315 720.346 941.199 729.15C940.906 751.64 940.36 774.119 945.387 796.252C947.202 804.281 949.522 812.183 951.61 820.148C952.229 821.25 952.544 822.205 950.697 822.216H950.686Z" fill="#020202"/>
<path d="M1080.6 589.364C1064.49 583.025 1048.25 576.98 1032.3 570.274C1019.31 564.817 1006.12 559.643 993.819 552.727C981.288 545.685 970.133 536.65 959.397 527.142C955.661 523.836 952.051 520.404 947.895 517.571C944.243 515.083 943.98 512.071 947.391 508.21C946.52 513.236 949.616 515.199 952.628 517.445C956.784 520.541 960.918 523.741 964.602 527.362C974.467 537.059 985.727 544.877 997.775 551.405C1012.58 559.433 1028.19 565.856 1043.87 572.058C1055.06 576.487 1066.19 581.073 1077.31 585.659C1079.18 586.425 1080.9 587.558 1082.7 588.524C1082.53 590.098 1081.68 589.993 1080.61 589.374L1080.6 589.364Z" fill="#030303"/>
<path d="M1043.91 819.886C1036.33 816.696 1033.02 809.591 1029.66 803.053C1026.39 796.693 1024.21 789.651 1022.44 782.683C1017.6 763.667 1012.79 744.619 1011.37 724.921C1010.88 718.226 1009.94 711.572 1009.2 704.898C1009.29 702.631 1007.03 699.902 1010.53 698.328C1013 700.028 1013.13 703.072 1013.18 705.296C1013.58 722.57 1016.19 739.551 1019.76 756.363C1023.73 775.064 1027.32 793.933 1037.69 810.577C1039.75 813.894 1042.8 816.171 1045.29 819.015C1045.03 819.634 1044.42 819.697 1043.89 819.896L1043.91 819.886Z" fill="#020202"/>
<path d="M1250.45 966.683C1248.2 961.32 1251.53 956.829 1253.08 952.369C1255.84 944.414 1257.89 936.323 1260.06 928.231C1265.08 909.572 1270.46 890.997 1275.06 872.233C1276.31 867.132 1277.2 861.78 1278.18 856.575C1279.54 849.281 1282.75 842.344 1285.89 835.502C1288.76 840.014 1285.92 843.855 1284.77 847.329C1281.52 857.121 1279.35 867.185 1276.45 877.05C1272.54 890.315 1270.58 904.188 1266.27 917.296C1263.77 924.873 1262.21 932.702 1259.96 940.3C1257.29 949.304 1252.94 957.605 1250.43 966.683H1250.45Z" fill="#030303"/>
<path d="M624.265 931.453C623.877 930.656 623.489 929.868 623.1 929.071C629.691 927.434 635.841 924.863 641.833 921.578C656.294 913.665 670.913 906.077 686.193 899.707C695.617 895.782 705.157 892.445 714.948 889.779C719.345 888.583 724.183 890.283 728.633 888.31C729.326 888.006 729.494 889.118 729.525 889.779C729.62 891.438 728.927 892.246 727.164 892.518C723.103 893.138 719.083 892.518 714.875 893.589C695.785 898.458 677.966 906.203 660.744 915.575C650.816 920.98 641.172 926.909 630.247 930.33C628.211 930.97 626.175 930.718 624.265 931.453Z" fill="#020202"/>
<path d="M1300.83 971.259C1301.91 971.993 1301.43 974.302 1303.31 974.071C1305.07 973.861 1304.83 972.14 1305.29 970.839C1309.39 958.728 1310.49 946.051 1312.71 933.573C1315.83 915.963 1319.25 898.385 1323.19 880.933C1325.24 871.823 1328.71 863.029 1331.36 854.046C1331.9 852.23 1333.14 850.866 1334.48 851.254C1336.41 851.81 1335.6 853.552 1334.9 855.043C1327.38 870.826 1324.87 888.037 1320.97 904.839C1318.55 915.313 1316.32 925.944 1315.11 936.522C1314.06 945.694 1311.13 954.426 1310.48 963.566C1310.26 966.673 1308.3 969.223 1307.86 972.361C1307.6 974.155 1306.09 976.905 1303.34 976.569C1300.45 976.212 1300.8 973.284 1300.11 971.259C1300.36 970.755 1300.61 970.755 1300.85 971.259H1300.83Z" fill="#020202"/>
<path d="M1378.6 987.001C1379.72 983.548 1380.78 980.179 1381.91 976.831C1386.35 963.619 1386.67 949.808 1388.25 936.134C1390.06 920.539 1390.31 904.829 1392.52 889.318C1393.17 884.753 1395.51 880.282 1396.26 875.528C1396.52 873.891 1397.18 872.107 1399.11 872.652C1401.31 873.272 1400.9 875.349 1400.38 877.06C1398.79 882.139 1397.24 887.229 1395.5 892.256C1393.57 897.808 1394.71 903.569 1394.12 909.215C1392.19 927.675 1391.29 946.229 1387.32 964.458C1385.75 971.689 1384.68 978.93 1380.85 985.416C1380.39 986.182 1380.09 986.98 1378.61 987.001H1378.6Z" fill="#030303"/>
<path d="M1428.69 981.019C1425.06 977.881 1424.88 973.158 1425.5 970.608C1430.44 950.259 1431.49 929.659 1431.15 908.869C1430.99 899.445 1431.08 890.01 1431.1 880.576C1431.1 879.358 1430.05 877.333 1432.22 877.281C1434.18 877.239 1434.29 879.17 1434.28 880.828C1434.26 890.776 1434.3 900.736 1434.25 910.685C1434.2 920.696 1434.69 930.761 1433.78 940.688C1432.93 949.913 1431.41 959.117 1430.08 968.31C1429.5 972.319 1430.03 976.485 1428.7 981.008L1428.69 981.019Z" fill="#020202"/>
<path d="M1281.15 180.361C1281.01 179.228 1281.29 177.968 1280.23 177.097C1279.94 163.843 1284.11 151.606 1288.22 139.223C1293.65 122.862 1299.88 106.637 1300.99 89.1428C1301.1 87.5687 1301.06 85.4698 1303.06 85.7111C1305.67 86.0155 1305.35 88.5971 1304.99 90.3602C1303.45 97.8323 1301.72 105.262 1299.98 112.693C1296.01 129.568 1289.22 145.603 1285.06 162.457C1283.59 168.408 1283.58 174.652 1281.17 180.361H1281.15Z" fill="#030303"/>
<path d="M816.273 961.887L815.297 959.746C830.734 952.169 847.085 947.174 863.719 943.154C871.684 941.223 879.828 939.996 887.919 938.579C889.609 938.285 891.403 938.621 893.145 938.558C894.488 938.505 895.15 939.062 894.919 940.363C894.509 942.672 893.554 940.478 892.872 940.583C889.157 941.118 885.421 941.591 881.738 942.294C873.646 943.837 865.545 945.358 857.516 947.174C852.175 948.381 846.917 949.986 841.691 951.623C840.778 951.907 838.994 952.106 839.728 954.426C840.169 955.832 839.287 958.193 837.052 955.59C835.709 954.803 834.838 955.297 834.26 956.608C829.769 959.463 824.448 959.305 819.526 960.607C818.361 960.911 817.27 961.215 816.283 961.887H816.273Z" fill="#060606"/>
<path d="M1280.34 681.149C1277.5 684.832 1273.07 684.486 1269.4 684.654C1255.81 685.273 1242.58 683.09 1229.55 678.913C1223.21 676.888 1216.72 675.345 1210.68 672.47C1209.83 672.071 1208.2 672.249 1208.69 670.759C1209.21 669.195 1210.87 669.699 1211.8 670.14C1219.89 673.97 1228.54 676.279 1237.19 678.021C1247.92 680.183 1258.69 682.744 1269.96 681.222C1273.19 680.781 1276.8 681.831 1280.35 681.149H1280.34Z" fill="#040404"/>
<path d="M969.556 920.119C964.361 923.603 958.159 924.306 952.376 926.028C944.264 928.441 935.679 929.323 927.64 931.925C921.564 933.898 915.561 935.976 909.359 937.592C905.623 938.568 901.803 938.159 898.151 939.188C897.269 939.439 896.776 939.135 896.598 938.422C896.314 937.257 897.269 937.005 898.088 936.931C913.137 935.473 926.759 928.452 941.556 925.818C950.938 924.138 959.88 920.235 969.43 918.965C970.059 919.29 970.101 919.678 969.556 920.13V920.119Z" fill="#060606"/>
<path d="M674.586 680.592C674.576 679.847 674.555 679.102 674.544 678.357C683.591 673.341 693.34 670.182 703.048 666.729C709.974 664.263 716.848 661.241 723.606 658.145C725.821 657.127 728.056 656.203 730.596 656.382C731.425 656.434 732.443 656.025 732.401 657.389C732.369 658.365 732.485 659.331 730.973 659.666C715.662 663.046 701.998 670.896 687.274 675.922C683.045 677.36 678.921 679.302 674.586 680.592Z" fill="#050505"/>
<path d="M752.235 271.317C752.214 271.779 752.183 272.23 752.162 272.692C742.308 270.708 732.884 267.224 723.26 264.454C711.569 261.095 700.571 255.187 688.093 254.578C686.33 254.494 684.43 253.865 683.003 252.511C683.045 250.317 684.514 251.22 685.606 251.314C696.688 252.941 707.151 256.814 717.792 260.098C726.923 262.911 736.095 265.566 745.257 268.274C747.712 268.998 750.105 269.837 752.235 271.317Z" fill="#070707"/>
<path d="M1065.99 326.182C1071.06 322.74 1074.23 317.335 1079.15 313.662C1084.75 309.475 1090.86 305.917 1095.77 300.828C1096.89 299.684 1098.08 299.484 1100.43 300.135C1090.62 311.459 1078.06 318.815 1067.29 328.218C1065.38 328.481 1065.4 327.515 1065.99 326.182Z" fill="#060606"/>
<path d="M1016.62 312.277C1016.65 312.697 1016.68 313.117 1016.71 313.536C1016.85 314.47 1017.45 315.929 1017.06 316.265C1005.64 326.172 994.805 336.698 984.836 348.357C983.702 346.542 983.964 345.366 984.972 344.233C989.453 339.217 993.808 334.085 998.436 329.215C1002.88 324.545 1007.71 320.263 1012.1 315.551C1013.46 314.093 1014.81 312.97 1016.61 312.277H1016.62Z" fill="#060606"/>
<path d="M851.944 954.363C857.821 954.971 863.456 954.594 868.599 949.808C866.783 954.058 869.407 954.604 872.576 954.908C870.341 957.448 867.927 956.241 865.964 956.787C862.984 957.605 858.282 956.105 859.363 962.055C859.479 962.695 851.629 966.274 851.199 965.812C850.37 964.91 850.548 963.808 851.23 962.989C852.909 960.974 854.714 959.064 856.53 957.049C855.512 955.549 852.899 957.784 851.881 955.591C851.576 955.171 851.576 954.761 851.944 954.363Z" fill="#070707"/>
<path d="M853.906 981.25C850.065 983.695 845.783 984.902 841.439 986.161C834.533 988.155 827.544 989.719 820.523 991.209C819.516 991.419 818.592 992.374 818.025 991.02C817.469 989.687 818.917 989.414 819.705 989.131C830 985.447 841.019 984.293 851.199 980.179C851.681 979.98 852.468 980.546 853.109 980.756C853.57 980.609 853.833 980.777 853.896 981.26L853.906 981.25Z" fill="#0A0A0A"/>
<path d="M969.556 920.119C969.514 919.731 969.472 919.342 969.43 918.954C977.552 916.352 985.717 913.917 994.144 912.542C997.712 911.965 1001.02 910.034 1004.72 910.443C1005.56 910.538 1006.98 908.397 1007.29 910.957C1007.48 912.521 1006.32 912.542 1005.28 912.615C998.206 913.13 991.542 915.543 984.752 917.286C979.725 918.576 974.803 920.109 969.556 920.109V920.119Z" fill="#0E0E0E"/>
<path d="M1140.49 251.545C1144.37 247.295 1148.27 243.139 1152.82 239.487C1157 236.129 1159.41 230.861 1163.74 227.45C1165.66 227.482 1165.18 228.562 1164.71 229.654C1160.38 235.237 1155.73 240.526 1150.38 245.186C1147.47 247.725 1146 251.976 1141.46 252.532C1140.56 252.763 1140.06 252.626 1140.49 251.556V251.545Z" fill="#0B0B0B"/>
<path d="M693.466 984.891C694.652 988.344 697.15 988.869 700.623 989.33C708.284 990.359 716.029 988.879 723.701 990.338C723.512 992.206 722.2 992.111 721.088 992.09C711.979 991.975 702.838 992.237 693.771 991.513C688.849 991.125 693.193 987.043 692.27 984.87C692.669 984.513 693.067 984.524 693.466 984.891Z" fill="#0D0D0D"/>
<path d="M1013.39 461.404C1007.26 457.364 1001 453.523 995.089 449.178C992.77 447.467 993.074 444.371 993.851 441.202C996.201 442.829 995.729 446.061 997.954 447.09C998.699 447.436 1000.63 450.878 1001.01 446.565C1001.14 445.043 1002.66 446.072 1002.62 446.596C1002.09 454.058 1008.98 455.023 1012.92 458.56C1013.53 459.106 1013.96 459.851 1014.47 460.502C1014.52 461.289 1014.38 461.855 1013.39 461.404Z" fill="#080808"/>
<path d="M615.838 702.757V704.625C606.383 706.997 597.252 710.586 587.576 712.118C586.831 712.685 586.086 712.685 585.362 712.076C585.373 711.562 585.278 710.628 585.425 710.596C595.542 707.91 605.176 703.303 615.849 702.757H615.838Z" fill="#080808"/>
<path d="M709.365 197.929C706.542 198.611 703.394 196.953 700.781 199.115C691.011 197.698 680.936 198.296 671.491 194.697C671.344 193.752 671.491 193.143 672.645 193.689C684.987 194.203 697.118 196.512 709.355 197.929H709.365Z" fill="#0A0A0A"/>
<path d="M994.606 928.494C993.273 927.917 991.94 927.423 993.347 925.566C994.69 923.803 1009.5 917.978 1011.67 918.671C1012.7 918.996 1013.53 919.941 1014.45 920.612L1014.16 920.854L1013.77 920.833C1012.26 921.872 1010.27 922.249 1009.29 924.034C1007.82 925.282 1005.69 923.393 1004.32 925.093C1002.91 925.24 1001.9 926.311 1000.63 926.783C998.646 927.434 996.789 928.536 994.606 928.494Z" fill="#EAEAEA"/>
<path d="M1116.34 925.072C1116.11 925.513 1115.96 926.248 1115.64 926.342C1106.99 928.766 1098.18 929.952 1089.12 929.543C1095.34 926.29 1102.29 926.321 1108.92 925.02C1111.4 924.338 1113.88 924.243 1116.34 925.072Z" fill="#080808"/>
<path d="M1290.5 261.799C1290.48 261.473 1290.5 261.148 1290.56 260.833C1293.78 256.919 1298.89 257.59 1303.04 256.152C1307.28 254.694 1312.2 254.788 1316.76 253.76C1317.11 253.949 1317.24 254.138 1317.11 254.326C1317 254.515 1316.87 254.61 1316.76 254.61C1312 258.608 1305.75 257.947 1300.3 259.815C1297.18 260.885 1293.78 261.158 1290.51 261.788L1290.5 261.799Z" fill="#101010"/>
<path d="M1172.87 218.939C1174.05 217.491 1175.16 215.99 1176.44 214.626C1179.56 211.299 1180.65 208.298 1175.13 206.325C1177.27 202.568 1182.59 209.179 1183.75 203.292C1184.84 203.239 1185.07 203.764 1184.69 204.698C1183.21 210.89 1179.29 215.549 1175.08 220.03C1173.92 220.513 1173.29 219.925 1172.86 218.939H1172.87Z" fill="#080808"/>
<path d="M1140.49 251.545C1140.82 251.871 1141.13 252.196 1141.46 252.521C1140.44 257.024 1136.65 259.553 1134 262.9C1132.77 264.475 1131.18 265.776 1129.75 267.203C1128.56 267.822 1127.34 268.536 1126.89 266.427C1130.87 260.959 1135.25 255.859 1140.49 251.535V251.545Z" fill="#070707"/>
<path d="M1041.13 351.317C1036.06 356.553 1030.87 361.643 1024 364.54C1023.72 364.193 1023.63 363.795 1023.74 363.364C1024.21 362.157 1024.69 360.951 1026.11 360.552C1030.59 357.351 1033.87 352.66 1038.91 350.152C1040.03 349.826 1040.7 350.341 1041.13 351.317Z" fill="#0F0F0F"/>
<path d="M773.476 976.59C772.458 979.749 769.625 980.221 766.98 980.977C761.366 982.582 756.15 985.563 750.126 985.731C750.147 985.542 750.178 985.353 750.199 985.174C756.842 980.578 764.661 978.951 772.143 976.475C772.637 975.971 773.077 976.013 773.476 976.6V976.59Z" fill="#080808"/>
<path d="M685.606 251.315C684.64 251.493 683.622 251.566 683.003 252.511C675.583 251.913 668.111 251.619 660.975 249.153C660.408 248.617 660.314 248.082 660.975 247.547C669.171 248.922 677.619 248.628 685.616 251.315H685.606Z" fill="#111111"/>
<path d="M1016.72 370.238C1015.45 373.764 1012.05 375.349 1009.8 378.403C1006.31 371.319 1011.93 369 1015.54 365.726C1017.58 366.807 1018 368.297 1016.72 370.238Z" fill="#151515"/>
<path d="M625.252 640.682C625.598 641.311 625.955 641.931 626.301 642.56C620.498 646.118 614.474 648.909 607.401 648.091L607.453 648.238C608.754 644.638 612.616 644.649 615.093 644.239C618.829 643.62 621.799 641.605 625.262 640.682H625.252Z" fill="#0C0C0C"/>
<path d="M1062.88 332.427C1059.23 335.229 1057.06 339.731 1052.49 341.494C1051.79 341.032 1051.48 340.35 1051.4 339.531C1051.4 338.713 1051.7 338.01 1052.28 337.443C1053.38 336.016 1052.9 332.878 1056.63 334.463C1058.27 335.166 1057.98 331.86 1059.29 330.538C1061.26 328.544 1060.86 330.632 1061.44 331.073C1062.68 330.684 1063.06 331.241 1062.88 332.406V332.427Z" fill="#111111"/>
<path d="M1016.72 370.238C1016.82 368.601 1016.34 367.132 1015.54 365.726C1016.84 362.871 1019.58 361.927 1022.15 360.762C1024.65 360.783 1024.85 362.084 1023.97 364.004C1023.97 364.183 1023.99 364.361 1024 364.54C1022.97 366.387 1020.3 366.849 1019.86 369.063C1019.38 371.424 1017.89 370.217 1016.73 370.238H1016.72Z" fill="#0E0E0E"/>
<path d="M1236.89 617.457C1244.25 617.31 1250.87 620.238 1257.63 622.726C1250.23 624.279 1243.82 620.364 1237.02 618.622C1236.42 618.287 1236.39 617.898 1236.89 617.457Z" fill="#0A0A0A"/>
<path d="M1395.35 229.276C1396.71 225.131 1401.12 227.261 1403.62 225.309C1404.61 224.533 1406.23 224.616 1407.5 224.134C1408.57 223.724 1409.86 222.339 1410.63 223.766C1411.44 225.278 1409.96 226.296 1408.55 226.526C1404 227.272 1400.28 230.735 1395.44 230.472C1395.15 230.221 1395.03 229.969 1395.11 229.685C1395.18 229.402 1395.27 229.266 1395.35 229.266V229.276Z" fill="#0D0D0D"/>
<path d="M1243.38 272.65C1241.39 274.875 1230.55 276.816 1228.86 275.179C1227.85 274.203 1228.57 272.66 1229.35 272.734C1232.88 273.059 1236.34 271.254 1239.86 272.377C1241.07 272.02 1242.48 268.987 1243.38 272.639V272.65Z" fill="#131313"/>
<path d="M1091.46 506.32C1097.89 508.136 1103.91 510.938 1109.58 514.611C1102.51 513.835 1096.37 510.445 1090.16 507.275C1090.1 506.268 1090.44 505.827 1091.47 506.32H1091.46Z" fill="#0A0A0A"/>
<path d="M1214.95 612.42C1215.63 612.158 1216.32 611.895 1217.01 611.633C1222.64 613.228 1228.76 613.218 1233.9 616.534C1234.07 617.625 1233.86 618.307 1232.54 617.814C1226.59 616.314 1220.5 615.264 1214.96 612.42H1214.95Z" fill="#0E0E0E"/>
<path d="M1085.04 918.755C1086.62 921.735 1085.25 924.915 1087.01 927.539C1087.6 928.41 1087.55 930.152 1085.78 930.288C1084.01 930.414 1081.66 931.18 1081.06 928.567C1080.85 927.675 1079.72 925.902 1082.59 925.366C1085.81 924.768 1082.61 920.812 1085.04 918.765V918.755Z" fill="#1A1A1A"/>
<path d="M1220.29 277.761C1217.85 276.911 1213.2 279.639 1213.13 275.861C1213.04 271.128 1217.82 274.791 1220.23 273.762C1221.1 273.384 1222.24 273.626 1223.27 273.584C1225.82 277.488 1221.74 276.69 1220.3 277.771L1220.29 277.761Z" fill="#0C0C0C"/>
<path d="M928.669 655.731C924.712 660.16 920.745 664.588 916.789 669.027C915.824 669.185 915.446 668.87 915.866 667.894C918.174 662.059 923.149 658.512 927.451 654.377C928.522 654.23 929.246 654.398 928.669 655.731Z" fill="#101010"/>
<path d="M1257.06 175.271C1252.55 177.297 1248.04 179.322 1243.54 181.348C1242.26 181.778 1241.97 181.18 1242.19 180.057C1246.5 177.192 1250.69 174.138 1255.79 172.763C1257.9 172.742 1257.43 174.033 1257.06 175.271Z" fill="#0D0D0D"/>
<path d="M1091.46 506.321C1091.02 506.635 1090.59 506.961 1090.15 507.276C1084.23 505.701 1078.65 503.319 1073.41 500.129C1073.91 499.468 1074.67 499.531 1075.37 499.415C1080.7 501.777 1086.46 503.141 1091.46 506.321Z" fill="#151515"/>
<path d="M801.507 816.895C801.843 817.262 802.179 817.64 802.515 818.008C798.989 822.856 795.473 827.715 791.947 832.563C792.965 825.857 797.498 821.555 801.507 816.895Z" fill="#191919"/>
<path d="M744.816 987.756C738.834 988.785 732.988 990.873 726.755 990.212C730.606 987.714 735.14 987.83 739.359 986.812C741.237 986.791 743.399 985.101 744.816 987.746V987.756Z" fill="#131313"/>
<path d="M1243.38 272.65C1242.34 270.761 1241.04 272.409 1239.86 272.388C1243.5 268.631 1248.31 269.795 1252.74 269.313C1253.58 270.488 1254.89 270.331 1256.09 270.488C1252.19 273.217 1247.68 272.325 1243.38 272.66V272.65Z" fill="#1F1F1F"/>
<path d="M607.39 648.091C605.648 652.152 602.07 649.214 599.436 650.043C597.421 650.683 595.007 650.043 592.771 649.969C593.202 647.251 595.699 648.553 597.106 647.734C600.569 647.503 604.169 644.712 607.443 648.238L607.39 648.091Z" fill="#141414"/>
<path d="M1126.89 266.437C1127.66 267.413 1128.76 267.119 1129.75 267.214C1126.22 269.533 1124.8 274.151 1120.57 275.725C1120.29 275.483 1120.19 275.232 1120.28 274.969C1120.36 274.707 1120.45 274.581 1120.54 274.581C1120.36 270.079 1124.69 269.082 1126.9 266.448L1126.89 266.437Z" fill="#1E1E1E"/>
<path d="M1267.92 171.094C1269.78 166.015 1273.65 164.472 1276.97 162.416C1277.57 162.038 1278.74 162.006 1279.03 163.224C1279.35 164.609 1278.53 166.194 1277.61 166.246C1274.01 166.487 1271.76 169.342 1267.92 171.094Z" fill="#0E0E0E"/>
<path d="M597.106 647.734C596.329 649.759 593.852 648.511 592.771 649.969C589.98 650.798 587.178 650.893 584.376 649.969C583.725 649.392 583.736 648.804 584.376 648.217C588.594 647.335 592.813 646.727 597.106 647.724V647.734Z" fill="#090909"/>
<path d="M1257.06 175.271C1256.87 174.316 1256.79 173.309 1255.79 172.763C1258.92 170.475 1262.77 170.192 1267.41 167.873C1265.47 172.805 1263.26 175.271 1259.25 173.802C1256.93 172.952 1257.86 174.967 1257.06 175.261V175.271Z" fill="#141414"/>
<path d="M597.882 941.906C598.281 941.507 598.68 941.118 599.089 940.72C603.193 940.006 606.54 943.186 610.57 942.965C611.788 942.903 613.236 943.196 612.701 945.001C612.207 946.66 610.413 946.313 609.636 945.883C605.942 943.836 601.744 943.385 597.882 941.906Z" fill="#0F0F0F"/>
<path d="M1034.3 475.078C1029.83 473.084 1025.7 470.534 1021.94 467.407C1021.94 466.651 1022.07 466.064 1023.04 466.557C1027.66 468.257 1031.7 470.954 1035.53 473.997C1035.64 474.942 1035.4 475.498 1034.31 475.089L1034.3 475.078Z" fill="#121212"/>
<path d="M1075.37 499.415C1074.72 499.657 1074.07 499.887 1073.41 500.129C1069.91 498.418 1066.43 496.655 1062.9 495.007C1061.98 494.577 1061.29 494.031 1061.88 493.139C1062.45 492.268 1063.38 492.09 1064.48 492.783C1068.07 495.06 1071.73 497.211 1075.36 499.415H1075.37Z" fill="#0F0F0F"/>
<path d="M651.131 795.539C651.215 801.3 648.14 805.76 644.131 806.117C646.178 802.56 647.679 798.865 651.131 795.539Z" fill="#1B1B1B"/>
<path d="M1050.31 485.405C1054.78 486.087 1057.74 489.225 1060.87 492.132C1056.05 492.184 1053.06 489.005 1050.04 485.867C1050.13 485.709 1050.22 485.562 1050.31 485.405Z" fill="#131313"/>
<path d="M1316.75 254.62C1316.75 254.337 1316.75 254.054 1316.75 253.77C1319.42 251.283 1322.53 251.094 1325.84 252.081H1326.27L1325.85 252.007C1325.34 255.145 1321.28 256.32 1316.75 254.631V254.62Z" fill="#101010"/>
<path d="M660.965 247.547C660.965 248.082 660.965 248.617 660.965 249.153C656.882 249.709 652.884 249.751 649.242 247.369C650.113 246.277 651.551 247.201 652.517 246.445C655.361 246.581 658.362 245.521 660.954 247.547H660.965Z" fill="#1F1F1F"/>
<path d="M1041.13 351.317C1040.39 350.928 1039.65 350.54 1038.91 350.152C1041.61 348.042 1044.32 345.933 1047.02 343.824C1047.79 343.204 1048.55 343.257 1049.29 343.866C1047.09 346.92 1044.37 349.407 1041.12 351.306L1041.13 351.317Z" fill="#090909"/>
<path d="M1357.79 170.99C1357.77 170.496 1357.76 169.993 1357.74 169.499C1359.24 167.138 1362.73 166.089 1361.96 162.195C1366.03 165.417 1364.82 167.684 1357.78 170.99H1357.79Z" fill="#141414"/>
<path d="M1050.04 485.856C1045.4 485.017 1043.01 480.997 1039.57 478.437C1039.23 477.88 1039.29 477.377 1039.77 476.936C1043.76 479.161 1047.2 482.068 1050.31 485.395C1050.13 485.499 1050.05 485.646 1050.04 485.856Z" fill="#090909"/>
<path d="M773.476 976.59C773.035 976.548 772.584 976.506 772.143 976.464C773.287 974.155 777.275 976.831 777.726 973.295H778.199C779.311 973.316 780.361 972.329 781.504 973.127C781.935 974.155 782.858 974.302 783.803 974.418C780.854 977.493 777.349 977.891 773.476 976.59Z" fill="#1A1A1A"/>
<path d="M961.034 932.387C960.656 932.754 960.279 933.132 959.901 933.5C956.648 933.363 953.552 934.213 950.466 935.074C949.238 935.42 948.178 935.693 947.454 934.318C947.213 934.119 947.129 933.909 947.202 933.699C947.276 933.489 947.349 933.374 947.423 933.374C951.831 931.296 956.48 932.587 961.024 932.387H961.034Z" fill="#111111"/>
<path d="M862.375 976.391C865.104 974.187 868.399 973.232 871.663 972.193C872.765 971.605 872.933 972.214 872.88 973.137C869.301 974.428 866.625 977.755 862.48 977.786C862.008 977.356 861.976 976.894 862.375 976.391Z" fill="#111111"/>
<path d="M613.718 944.75C616.772 943.7 619.49 944.162 622.051 946.366C618.493 949.21 616.142 946.754 613.718 944.75Z" fill="#1D1D1D"/>
<path d="M904.196 682.639C906.798 679.511 908.436 675.576 912.056 673.299L911.92 673.246C911.615 677.643 908.53 680.173 905.508 682.744C905.025 683.237 904.584 683.205 904.185 682.639H904.196Z" fill="#1B1B1B"/>
<path d="M947.433 933.374C947.433 933.688 947.444 934.003 947.465 934.318C944.747 936.312 941.357 935.514 938.313 936.354C941.273 935.074 943.172 930.781 947.444 933.374H947.433Z" fill="#131313"/>
<path d="M571.593 928.819C569.557 929.889 563.145 928.389 562.442 926.709C562.285 926.342 562.337 925.649 562.589 925.398C563.282 924.705 564.363 924.757 564.929 925.324C566.787 927.171 569.389 927.528 571.593 928.819Z" fill="#0E0E0E"/>
<path d="M729.997 853.301C729.168 854.885 727.804 854.759 726.419 854.791C723.984 854.854 723.669 852.797 723.428 851.37C723.197 849.995 725.044 850.425 725.516 850.74C726.954 851.716 729.347 851.149 729.997 853.301Z" fill="#030303"/>
<path d="M1172.87 218.939C1173.61 219.306 1174.36 219.663 1175.09 220.03C1173.55 222.434 1171.35 224.029 1168.76 225.131C1168.01 224.753 1167.24 224.386 1167.74 223.294C1169.45 221.835 1171.15 220.387 1172.87 218.928V218.939Z" fill="#181818"/>
<path d="M1080.6 589.364C1081.29 589.08 1081.99 588.797 1082.69 588.514C1084.92 589.269 1087.22 589.899 1089.04 591.525C1089.3 591.714 1089.39 591.903 1089.32 592.113C1089.25 592.323 1089.16 592.428 1089.08 592.428C1085.47 593.572 1083.04 591.442 1080.6 589.364Z" fill="#252525"/>
<path d="M862.375 976.391C862.407 976.852 862.449 977.325 862.48 977.786C859.626 978.941 856.76 980.095 853.906 981.25C853.633 981.092 853.371 980.924 853.119 980.746C855.039 976.81 859.447 978.175 862.375 976.391Z" fill="#191919"/>
<path d="M931.628 650.179C933.035 647.503 933.444 643.862 938.324 643.694C936.729 646.569 935.155 648.7 932.793 650.221C932.395 650.599 932.006 650.568 931.628 650.179Z" fill="#212121"/>
<path d="M584.376 648.227C584.376 648.815 584.376 649.392 584.376 649.98C581.91 649.822 578.866 651.281 577.25 648.741C576.516 647.577 578.52 646.863 579.958 647.167C581.437 647.482 582.896 647.87 584.365 648.217L584.376 648.227Z" fill="#232323"/>
<path d="M744.816 987.756C743.158 986.528 741.174 987.137 739.359 986.822C742.937 986.056 746.453 984.86 750.199 985.175C750.325 985.384 750.304 985.573 750.126 985.731C749.14 988.47 746.306 986.339 744.816 987.756Z" fill="#333333"/>
<path d="M1062.88 332.427C1062.4 331.986 1061.92 331.535 1061.43 331.094C1063.58 330.034 1062.99 326.455 1065.99 326.193C1066.03 327.127 1066.38 327.861 1067.29 328.229C1065.95 329.761 1065.59 332.322 1062.88 332.437V332.427Z" fill="#131313"/>
<path d="M851.943 954.363C851.922 954.772 851.901 955.181 851.881 955.591C849.141 956.556 846.465 955.444 843.726 955.171C846.455 954.72 848.984 952.705 851.933 954.363H851.943Z" fill="#111111"/>
<path d="M828.782 690.079C829.842 689.743 828.877 687.519 830.766 687.959V697.016C828.163 695.148 830.105 692.115 828.782 690.079Z" fill="#040404"/>
<path d="M1331.45 250.622C1333.77 249.268 1336.08 247.914 1339.24 248.838C1337.35 252.71 1334.18 251.388 1331.44 251.398C1331.08 251.22 1330.97 251.052 1331.08 250.874C1331.2 250.706 1331.32 250.611 1331.44 250.611L1331.45 250.622Z" fill="#232323"/>
<path d="M1023.97 364.015C1024.07 362.535 1023.06 361.685 1022.15 360.772C1023.26 359.377 1024.36 357.97 1026.11 355.735V360.552C1025.4 361.706 1024.68 362.861 1023.97 364.015Z" fill="#373737"/>
<path d="M591.648 876.714C591.648 877.06 591.669 877.406 591.68 877.763C591.061 878.005 590.42 878.487 589.822 878.435C587.797 878.267 585.887 877.627 584.396 876.147C584.26 876.011 584.627 874.961 584.858 874.93C586.81 874.625 588.563 875.203 590.168 876.336C590.557 876.609 591.144 876.588 591.648 876.703V876.714Z" fill="#222222"/>
<path d="M582.518 932.293C581.49 932.198 580.115 931.411 580.157 933.478C577.953 933.573 576.547 931.999 573.986 930.592C577.607 930.341 580.367 929.543 582.508 932.303L582.518 932.293Z" fill="#1F1F1F"/>
<path d="M1370.82 234.439C1373.29 231.753 1376 233.18 1378.59 233.631C1376.21 235.268 1373.65 235.1 1370.82 234.439Z" fill="#242424"/>
<path d="M1152.85 894.649C1152.47 891.742 1155.71 889.37 1154.06 886.285C1155.38 886.264 1155.26 887.68 1156 888.237C1156 889.307 1154.92 889.989 1155.37 891.448C1155.71 892.56 1156.31 895.677 1152.85 894.659V894.649Z" fill="#B7B7B7"/>
<path d="M574.742 873.88C572.465 874.856 570.418 874.73 568.75 872.673C567.595 873.25 567.459 872.621 567.574 871.687C570.953 871.393 574.186 871.739 577.114 873.649C576.379 874.268 575.571 874.184 574.742 873.87V873.88Z" fill="#131313"/>
<path d="M1235.96 826.393C1238.01 829.908 1234.23 831.325 1233.23 833.739C1233.08 834.085 1231.92 834.368 1231.5 833.518C1231.31 833.13 1231.33 832.207 1231.45 832.175C1234.32 831.336 1233.65 827.642 1236.07 826.477L1235.97 826.393H1235.96Z" fill="#181818"/>
<path d="M1395.35 229.276C1395.38 229.675 1395.41 230.084 1395.43 230.483C1394.44 232.015 1393.19 233.002 1391.21 232.487C1389.77 231.921 1387.97 232.813 1386.71 231.427C1389.59 230.714 1392.47 229.99 1395.35 229.276Z" fill="#2C2C2C"/>
<path d="M877.267 242.142C876.154 238.742 878.201 237.294 879.901 235.541C880.898 238.406 879.943 240.421 877.267 242.142Z" fill="#161616"/>
<path d="M1116.34 925.072C1113.87 925.051 1111.4 925.041 1108.92 925.02C1112.75 923.551 1116.72 924.359 1120.63 924.348C1120.63 924.537 1120.61 924.726 1120.6 924.915C1119.22 926.027 1117.8 926.122 1116.33 925.083L1116.34 925.072Z" fill="#575757"/>
<path d="M950.686 822.216C950.991 821.523 951.295 820.841 951.599 820.148C951.925 820.904 952.554 821.68 952.512 822.415C952.408 823.874 954.559 824.986 953.09 826.518C952.838 826.781 952.103 826.928 951.809 826.76C949.889 825.668 950.686 823.832 950.697 822.216H950.686Z" fill="#232323"/>
<path d="M931.628 650.179C932.017 650.19 932.405 650.211 932.793 650.221C933.035 653.265 929.225 653.286 928.669 655.731C928.26 655.28 927.85 654.828 927.452 654.377C928.564 652.687 928.994 650.337 931.639 650.179H931.628Z" fill="#242424"/>
<path d="M1039.77 476.946C1039.71 477.45 1039.64 477.943 1039.58 478.447C1037.11 478.426 1035.73 476.695 1034.3 475.078L1035.52 473.987C1037.12 474.711 1038.96 475.099 1039.76 476.946H1039.77Z" fill="#252525"/>
<path d="M1136.32 901.103C1137.04 901.418 1137.76 901.733 1138.48 902.047C1136.31 903.685 1133.64 903.8 1131.17 904.524C1130.71 904.115 1130.49 903.611 1130.51 902.992C1131.8 900.368 1133.84 900.054 1136.32 901.103Z" fill="#1F1F1F"/>
<path d="M1123.63 924.002C1126.3 922.271 1129.25 923.184 1132.09 923.131C1132.45 923.351 1132.58 923.572 1132.46 923.792C1132.35 924.013 1132.22 924.128 1132.11 924.128C1130.98 925.965 1129.23 924.432 1127.84 924.915C1126.58 923.95 1124.82 925.272 1123.63 924.013V924.002Z" fill="#1D1D1D"/>
<path d="M1036.45 930.141C1038.39 929.186 1040.33 928.221 1042.28 927.266C1042.55 927.728 1042.81 928.189 1043.07 928.651C1041.05 929.585 1039.88 931.936 1036.45 930.141Z" fill="#171717"/>
<path d="M1052.29 339.678C1052.36 340.287 1052.43 340.896 1052.49 341.504C1052.04 341.588 1051.58 341.662 1051.13 341.746C1049.78 342.9 1048.43 342.827 1047.08 341.735C1047.16 340.644 1047.24 339.552 1047.32 338.461C1049.22 337.905 1050.87 338.366 1052.29 339.689V339.678Z" fill="#858585"/>
<path d="M567.574 871.687C567.962 872.012 568.361 872.348 568.75 872.673C568.645 872.82 568.582 872.999 568.445 873.093C566.346 874.678 564.573 873.146 562.747 872.422C562.484 872.317 562.243 871.299 562.411 871.131C564.321 869.231 565.79 871.949 567.574 871.687Z" fill="#151515"/>
<path d="M1054.28 915.533C1056.38 914.494 1058.69 912.458 1059.67 916.677C1057.67 917.275 1055.95 916.54 1054.28 915.533Z" fill="#CDCDCD"/>
<path d="M856.12 737.41C855.743 738.113 855.365 738.805 854.997 739.509C853.581 740.033 852.804 739.823 852.867 738.029C852.92 736.727 853.088 735.153 854.221 734.922C855.627 734.629 855.008 736.885 856.12 737.41Z" fill="#1F1F1F"/>
<path d="M994.606 928.494C996.611 927.549 998.405 926.101 1000.76 926.017C1001.91 925.492 1002.05 926.112 1001.92 927.035C999.738 928.557 997.272 929.186 994.659 929.354C994.575 929.071 994.554 928.777 994.606 928.483V928.494Z" fill="#0F0F0F"/>
<path d="M1131.8 726.831C1131.5 727.251 1131.19 727.681 1130.89 728.101C1129.43 725.834 1127.58 723.735 1127.66 719.894C1129.32 722.665 1131.18 724.344 1131.8 726.831Z" fill="#141414"/>
<path d="M585.362 712.076C586.097 712.086 586.842 712.107 587.576 712.118C585.436 713.671 582.98 713.01 580.367 713.188C581.689 710.292 583.19 709.599 585.362 712.076Z" fill="#181818"/>
<path d="M1123.63 924.002C1125.05 924.202 1126.66 923.561 1127.84 924.905C1125.43 924.359 1123.02 927.948 1120.6 924.905C1120.81 924.726 1120.82 924.537 1120.63 924.338C1121.63 924.223 1122.63 924.107 1123.63 924.002Z" fill="#171717"/>
<path d="M1242.19 180.057C1242.64 180.487 1243.08 180.917 1243.54 181.348C1241.9 182.334 1240.5 184.139 1238.17 182.995C1238.4 180.424 1240.36 180.319 1242.19 180.057Z" fill="#2D2D2D"/>
<path d="M1132.1 924.128C1132.15 923.803 1132.15 923.467 1132.1 923.142C1132.27 923.1 1132.47 922.984 1132.6 923.037C1134.26 923.74 1135.53 921.095 1137.19 922.491C1137.45 922.701 1137.51 923.593 1137.28 923.845C1135.69 925.618 1133.86 924.275 1132.1 924.139V924.128Z" fill="#010101"/>
<path d="M911.92 673.246L912.056 673.309C911.752 670.402 914.092 669.353 915.855 667.894C916.159 668.272 916.474 668.65 916.779 669.027C915.351 670.665 914.543 673.005 911.92 673.246Z" fill="#242424"/>
<path d="M1184.7 204.698C1184.39 204.226 1184.07 203.764 1183.76 203.292C1184.66 200.825 1185.04 198.139 1186.63 195.945C1187.4 196.953 1187.23 198.023 1186.8 199.094C1186.1 200.962 1185.41 202.83 1184.7 204.698Z" fill="#131313"/>
<path d="M976.576 933.909C977.227 937.844 974.404 937.173 971.738 938.044C972.494 934.623 975.149 935.168 976.555 934.024L976.576 933.919V933.909Z" fill="#232323"/>
<path d="M1013.39 461.404C1013.75 461.1 1014.12 460.806 1014.47 460.502C1016.31 460.9 1018.02 461.488 1018.92 463.335C1018.77 464.007 1018.35 464.384 1017.69 464.5C1016.57 463.041 1014.28 463.188 1013.39 461.404Z" fill="#393939"/>
<path d="M1017.69 464.5L1018.92 463.335C1020.58 464.038 1022.16 464.825 1023.04 466.546C1022.67 466.83 1022.31 467.113 1021.94 467.396C1020.53 466.431 1019.11 465.465 1017.69 464.5Z" fill="#1A1A1A"/>
<path d="M981.908 930.509C983.031 930.131 984.153 929.763 985.276 929.386C987.774 933.657 983.524 932.44 981.992 933.416C981.729 933.132 981.645 932.859 981.74 932.597C981.834 932.335 981.929 932.198 982.023 932.198C981.981 931.631 981.95 931.075 981.908 930.509Z" fill="#939393"/>
<path d="M1104.2 293.649C1104.35 297.501 1102.05 297.921 1101.19 298.34C1101.67 297.585 1102.72 295.958 1104.2 293.649Z" fill="#0A0A0A"/>
<path d="M1119.66 276.753C1119.31 277.089 1119.01 277.666 1118.62 277.719C1117.33 277.876 1117.3 280.961 1115.79 279.44C1114.18 277.824 1115.82 276.564 1117.42 275.788C1118.14 276.186 1119.18 275.819 1119.66 276.764V276.753Z" fill="#202020"/>
<path d="M987.113 928.315C988.603 928.378 989.422 929.543 990.461 930.351C989.978 931.443 989.317 932.838 988.037 932.324C986.211 931.6 987.481 929.669 987.113 928.315Z" fill="#363636"/>
<path d="M1052.29 339.678C1050.64 339.269 1048.98 338.86 1047.32 338.45C1048.71 336.771 1050.52 337.222 1052.29 337.453C1052.29 338.198 1052.29 338.944 1052.29 339.678Z" fill="#353535"/>
<path d="M1331.45 250.622C1331.45 250.884 1331.45 251.147 1331.45 251.398C1329.72 252.784 1328.12 255.47 1325.87 252.007V252.081C1327.73 251.587 1329.59 251.105 1331.46 250.622H1331.45Z" fill="#2D2D2D"/>
<path d="M965.62 939.88C964.382 939.544 964.162 938.621 964.266 937.508H969.556C968.149 939.072 967.236 939.964 965.631 939.88H965.62Z" fill="#2D2D2D"/>
<path d="M988.393 461.75C989.054 463.765 988.708 465.392 986.756 466.525C985.255 464.217 987.092 463.031 988.393 461.75Z" fill="#242424"/>
<path d="M872.88 973.137C872.471 972.822 872.072 972.508 871.663 972.193C873.709 970.818 875.567 968.635 878.432 970.493L878.369 970.451C876.543 971.343 874.717 972.235 872.88 973.127V973.137Z" fill="#181818"/>
<path d="M1131.03 903.055C1131.09 903.548 1131.13 904.031 1131.18 904.524C1130.54 905.931 1129.26 906.141 1127.94 906.277C1127.25 905.091 1125.98 905.469 1124.96 905.186C1125.91 901.418 1128.64 902.709 1131.04 903.055H1131.03Z" fill="#252525"/>
<path d="M1387.53 162.657C1384.91 163.685 1383.01 163.853 1380.71 163.14C1382.75 159.656 1384.79 161.765 1387.53 162.657Z" fill="#090909"/>
<path d="M1386.71 231.427C1388.19 231.868 1389.96 231.134 1391.21 232.487C1389.65 232.393 1387.33 235.51 1386.71 231.427Z" fill="#1D1D1D"/>
<path d="M845.553 103.657C844.65 101.757 842.478 99.4065 847.043 99.438C847.715 101.254 845.721 102.135 845.553 103.657Z" fill="#B8B8B8"/>
<path d="M824.836 150.809C824.784 148.678 823.346 145.635 827.733 146.464C826.253 147.566 826.641 149.917 824.836 150.809Z" fill="#CACACA"/>
<path d="M1043.92 925.755C1044.81 924.359 1045.6 923.32 1047.04 923.225C1047.27 923.215 1047.83 924.044 1047.75 924.317C1047.19 925.996 1046.11 926.762 1043.93 925.755H1043.92Z" fill="#3D3D3D"/>
<path d="M1391.35 166.036C1392.1 164.053 1393.87 164.462 1395.12 163.906C1395.18 164.556 1395.56 165.511 1395.27 165.805C1394.11 166.97 1392.76 166.739 1391.35 166.036Z" fill="#202020"/>
<path d="M1220.29 277.761C1222.11 276.953 1224.83 276.785 1223.26 273.573C1223.65 273.573 1224.05 273.552 1224.44 273.542C1226.19 274.644 1225.87 275.714 1224.38 276.774C1223.28 278.201 1221.71 277.624 1220.29 277.761Z" fill="#FAFAFA"/>
<path d="M904.196 682.639C904.637 682.67 905.078 682.702 905.518 682.744C904.763 684.612 904.133 686.595 901.53 687.162C901.006 684.738 903.64 684.255 904.196 682.639Z" fill="#131313"/>
<path d="M1224.38 276.774C1224.4 275.693 1224.41 274.623 1224.44 273.542C1225.57 273.731 1227.49 272.503 1227.62 274.518C1227.73 276.26 1226.19 277.037 1224.38 276.774Z" fill="#383838"/>
<path d="M559.399 871.288C557.079 871.655 555.264 872.159 553.564 869.976C555.715 869.032 557.31 869.504 559.399 871.288Z" fill="#1A1A1A"/>
<path d="M834.25 956.609C834.051 955.696 832.319 954.709 834.261 953.89C835.845 953.219 836.664 954.132 837.042 955.591C836.244 956.283 835.394 956.85 834.25 956.609Z" fill="#BABABA"/>
<path d="M1186.8 199.094C1186.75 198.044 1186.69 196.995 1186.63 195.945C1186.85 194.539 1186.03 192.976 1187.62 191.317C1187.48 194.224 1188.47 196.754 1186.81 199.104L1186.8 199.094Z" fill="#B6B6B6"/>
<path d="M1010.54 698.318C1008.41 700.165 1010.22 702.809 1009.21 704.887C1007.99 703.019 1008.65 700.868 1008.44 698.874C1008.24 697.006 1009.41 696.985 1010.54 698.318Z" fill="#3E3E3E"/>
<path d="M1043.91 819.886C1044.38 819.592 1044.84 819.298 1045.32 819.004C1046.26 819.823 1047.3 817.199 1048.16 819.046C1048.43 819.624 1048.72 820.589 1048.43 820.967C1047.41 822.352 1046.83 820.442 1045.9 820.432C1045.24 820.432 1044.57 820.075 1043.91 819.886Z" fill="#2E2E2E"/>
<path d="M1136.46 802.245C1135.95 802.308 1135.43 802.36 1134.93 802.423C1134.12 801.006 1132.83 799.768 1133.35 797.512C1135.15 798.792 1135.97 800.398 1136.47 802.245H1136.46Z" fill="#020202"/>
<path d="M1047.08 341.725C1048.43 341.725 1049.78 341.725 1051.13 341.735C1051.56 343.341 1051 344.086 1049.3 343.866C1048.55 343.855 1047.78 343.834 1047.03 343.824C1047.05 343.121 1047.07 342.428 1047.09 341.725H1047.08Z" fill="#121212"/>
<path d="M1167.75 223.294C1168.1 223.903 1168.44 224.511 1168.77 225.131C1167.56 225.414 1167.89 226.558 1167.56 227.335C1166.22 228.069 1165.37 228.017 1165.56 226.17C1166.56 225.414 1166.17 223.609 1167.74 223.305L1167.75 223.294Z" fill="#0B0B0B"/>
<path d="M574.637 648.553C573.304 649.592 571.709 649.172 568.707 648.92C571.436 648.08 572.842 647.64 574.259 647.199L574.637 648.542V648.553Z" fill="#1F1F1F"/>
<path d="M864.359 75.3741C865.167 75.2272 866.122 75.3741 866.51 74.3457C867.728 74.1568 868.851 74.1463 869.522 75.8779C867.581 76.2347 865.891 77.1057 864.359 75.3636V75.3741Z" fill="#585858"/>
<path d="M1300.83 971.259L1300.46 971.29L1300.09 971.248C1298.56 969.895 1298.44 968.299 1299.26 966.442C1300.51 967.859 1300.65 969.559 1300.83 971.259Z" fill="#212121"/>
<path d="M652.527 246.445C651.645 247.494 650.407 247.285 649.253 247.369C648.245 246.938 647.227 246.508 645.811 245.899C648.718 244.273 650.47 246.497 652.527 246.445Z" fill="#111111"/>
<path d="M866.962 962.297C866.258 963.808 865.167 964.322 863.708 963.64C863.467 963.535 863.289 962.622 863.467 962.391C864.548 961.037 865.755 962.024 866.951 962.297H866.962Z" fill="#272727"/>
<path d="M982.023 932.198C982.023 932.607 982.002 933.017 981.992 933.426C980.187 933.646 978.728 937.487 976.576 933.93C976.576 933.93 976.566 934.045 976.555 934.035C978.098 932.597 980.753 934.486 982.013 932.198H982.023Z" fill="#404040"/>
<path d="M935.291 938.526C934.368 938.526 933.57 938.285 933.79 937.508C933.99 936.816 934.724 936.27 935.228 935.651C935.711 936.092 936.645 936.679 936.571 936.952C936.383 937.592 935.69 938.075 935.302 938.516L935.291 938.526Z" fill="#2A2A2A"/>
<path d="M672.656 193.7C672.267 194.035 671.879 194.371 671.501 194.707C670.158 194.885 669.255 194.308 668.615 193.038C670.105 192.776 671.575 191.968 672.666 193.71L672.656 193.7Z" fill="#373737"/>
<path d="M1236.9 218.761C1236.84 220.02 1237.01 220.849 1236.01 220.713C1235.68 220.671 1235.25 220.125 1235.16 219.737C1235.01 219.096 1235.14 218.351 1236.05 218.404C1236.48 218.425 1236.9 218.761 1236.9 218.771V218.761Z" fill="#D1D1D1"/>
<path d="M896.115 695.715C896.031 694.403 895.947 693.102 895.863 691.79C896.461 691.255 897.238 690.163 897.626 690.279C898.802 690.657 898.445 691.591 897.605 692.073C896.115 692.934 897.458 694.854 896.115 695.704V695.715Z" fill="#020202"/>
<path d="M1132.09 171.798C1131.81 171.126 1131.54 170.454 1131.25 169.783C1131.6 168.733 1131.53 167.474 1132.99 166.655C1133.43 168.639 1133.57 170.328 1132.09 171.798Z" fill="#3F3F3F"/>
<path d="M871.642 962.496C872.828 961.247 873.804 960.418 875.241 961.3C875.535 961.478 875.745 962.454 875.661 962.507C874.433 963.252 873.185 963.157 871.642 962.496Z" fill="#050505"/>
<path d="M1169.56 893.453C1169.11 894.334 1168.36 894.659 1167.45 894.397C1167.1 894.303 1165.87 894.743 1166.64 893.505C1167.16 892.697 1167.86 892.309 1168.79 892.508C1169.22 892.602 1169.86 892.686 1169.56 893.442V893.453Z" fill="#212121"/>
<path d="M1144.59 923.54C1144.86 924.674 1144.54 925.073 1143.66 925.073C1142.63 925.073 1142.11 924.286 1141.8 923.572C1141.69 923.31 1142.56 922.638 1142.98 922.145C1143.58 922.669 1144.17 923.184 1144.58 923.54H1144.59Z" fill="#0F0F0F"/>
<path d="M1009.3 924.034C1008.94 920.371 1011.72 921.116 1013.78 920.833C1012.57 922.312 1011.32 923.719 1009.3 924.034Z" fill="#050505"/>
<path d="M1165.56 226.159C1165.94 227.041 1166.71 227.251 1167.56 227.324C1166.6 228.09 1165.66 228.867 1164.7 229.633C1164.38 228.898 1164.05 228.164 1163.73 227.429C1163.98 226.485 1164.83 226.401 1165.56 226.149V226.159Z" fill="#2D2D2D"/>
<path d="M1236.07 826.477C1235.74 825.039 1235.66 823.633 1236.95 822.415C1236.77 823.759 1237.87 825.312 1235.96 826.393L1236.06 826.477H1236.07Z" fill="#373737"/>
<path d="M1119.66 276.753C1118.91 276.428 1118.17 276.103 1117.42 275.777C1118.32 275.001 1119.13 274.046 1120.53 274.57C1120.54 274.948 1120.55 275.336 1120.57 275.714C1120.27 276.061 1119.96 276.407 1119.66 276.753Z" fill="#0F0F0F"/>
<path d="M574.742 873.88C575.529 873.807 576.327 873.733 577.114 873.66C577.596 873.733 578.289 873.639 578.509 873.912C579.202 874.772 578.111 875.14 577.743 875.203C576.537 875.391 575.582 874.699 574.742 873.88Z" fill="#757575"/>
<path d="M876.06 954.782C875.924 956.482 875.231 956.587 874.57 956.514C874.056 956.461 873.017 956.818 873.237 955.748C873.426 954.866 874.255 954.415 875.2 954.52C875.672 954.572 876.134 954.803 876.06 954.782Z" fill="#040404"/>
<path d="M1297.47 955.685C1298 957.71 1297.98 959.001 1297.37 960.481C1296.63 958.802 1296.55 957.375 1297.47 955.685Z" fill="#838383"/>
<path d="M1001.92 927.035C1001.53 926.699 1001.14 926.353 1000.76 926.017C1001.71 924.8 1002.92 924.548 1004.32 925.093C1004.1 926.468 1003.1 926.856 1001.92 927.045V927.035Z" fill="#393939"/>
<path d="M878.432 970.493C877.676 967.827 879.628 967.869 881.234 967.166C881.601 969.905 878.652 968.793 878.369 970.451L878.442 970.493H878.432Z" fill="#373737"/>
<path d="M657.753 622.873C657.722 623.838 657.68 625.37 656.441 624.793C655.077 624.153 655.298 622.694 656.641 621.729C657.008 622.106 657.386 622.495 657.753 622.873Z" fill="#AAAAAA"/>
<path d="M1349.15 137.019C1348.76 137.334 1348.32 137.953 1347.78 138.068C1347.21 138.184 1346.28 137.89 1346.61 137.008C1346.78 136.568 1347.57 136.316 1348.12 136.085C1348.7 135.843 1348.98 136.221 1349.14 137.019H1349.15Z" fill="#070707"/>
<path d="M693.466 984.891C693.067 984.891 692.669 984.881 692.27 984.87C691.63 984.849 690.811 984.797 691.147 983.926C691.315 983.474 692.175 982.96 692.669 983.013C693.812 983.118 693.55 984.104 693.466 984.891Z" fill="#A3A3A3"/>
<path d="M1089.07 592.439C1089.1 592.134 1089.08 591.84 1089.02 591.547C1089.99 591.431 1091.14 591.032 1091.14 592.638C1091.14 593.173 1091.52 594.254 1090.57 594.128C1090 594.055 1089.56 593.026 1089.06 592.439H1089.07Z" fill="#151515"/>
<path d="M872.282 130.187C872.67 128.182 873.657 126.818 874.412 127.028C876.228 127.553 874.664 128.392 874.171 129.001C873.888 129.337 873.394 129.505 872.282 130.187Z" fill="#666666"/>
<path d="M1232.54 617.814C1232.99 617.384 1233.45 616.964 1233.9 616.534C1234.79 617.184 1235.69 617.835 1236.9 617.457C1236.95 617.846 1236.99 618.234 1237.03 618.622C1235.5 618.549 1233.79 619.493 1232.55 617.814H1232.54Z" fill="#2B2B2B"/>
<path d="M832.949 122.264C836.15 115.117 836.926 106.952 842.509 99.3016C841.439 108.988 836.916 115.946 833.925 123.46C832.98 123.565 832.372 123.397 832.949 122.264Z" fill="#F0F0F0"/>
<path d="M832.949 122.264C833.274 122.662 833.599 123.061 833.925 123.46C833.316 127.269 831.92 130.785 829.947 134.08C829.338 133.944 828.992 133.566 828.898 132.957C829.485 129.106 831.06 125.622 832.959 122.264H832.949Z" fill="#DEDEDE"/>
<path d="M786.406 219.726C787.025 221.29 787.098 222.413 785.755 223.084C785.01 223.462 784.894 222.811 784.768 222.413C784.307 220.891 786.059 220.692 786.406 219.737V219.726Z" fill="#C6C6C6"/>
<path d="M828.887 132.968C829.233 133.346 829.59 133.713 829.936 134.091C829.748 134.962 829.202 136.221 828.457 135.728C827.365 135.004 827.523 133.713 828.887 132.968Z" fill="#FCFCFC"/>
<path d="M1131.03 903.055C1129.01 903.768 1126.98 904.472 1124.95 905.185C1118.41 906.791 1111.57 906.266 1105.19 909.761C1100.72 912.206 1095.03 914.148 1089.39 910.842C1091.35 908.795 1093.83 908.596 1096.29 908.019C1099.26 907.326 1103.47 908.69 1104.47 903.884C1104.5 903.737 1106.04 903.915 1106.88 903.947C1107.18 903.779 1107.48 903.737 1107.8 903.811C1107.96 903.16 1107.29 903.097 1107.03 902.74C1106.89 899.172 1104.35 898.836 1102.77 900.851C1098.74 906.014 1092.6 905.679 1087.38 907.589C1085.04 908.439 1082.4 908.711 1079.92 909.31C1077.48 909.897 1074.86 910.726 1072.41 908.785C1069.76 906.676 1066.78 908.008 1063.9 908.281C1062.43 908.418 1060.89 908.176 1060.83 906.361C1060.77 904.881 1062.13 904.724 1063.41 904.461C1071.9 902.688 1080.04 899.518 1088.67 898.196C1090.62 897.892 1092.36 897.734 1094.25 898.406C1095.17 898.742 1096.71 899.025 1097.24 898.532C1103.08 893.263 1110.49 895.132 1117.21 894.009C1119.08 893.694 1121.72 893.201 1121.46 896.706C1123.14 895.53 1125 896.622 1126.74 896.286C1134.15 894.89 1141.74 894.586 1149.05 892.602C1150.75 892.141 1152.21 892.361 1152.2 894.659C1150.91 900.263 1145.52 897.503 1142.36 899.413C1140.62 900.463 1138.13 899.749 1136.31 901.113C1134.77 902.362 1132.35 901.218 1131.02 903.065L1131.03 903.055Z" fill="#FDFDFD"/>
<path d="M1228.36 506.698C1234.45 505.911 1239.5 503.13 1245.25 504.883C1240.64 508.839 1233.26 509.689 1228.36 506.698Z" fill="#F0F0F0"/>
<path d="M1259.76 404.524C1259.76 405.091 1259.77 405.678 1259.76 405.678C1257.12 405.783 1255.01 408.816 1252.11 407.116C1251.76 406.906 1251.65 405.405 1251.83 405.321C1254.36 404.083 1257.05 404.65 1259.76 404.524Z" fill="#E9E9E9"/>
<path d="M1040.01 911.755C1044.61 909.331 1049.25 907.19 1054.39 907.011C1055.56 906.969 1057.93 905.805 1058.23 908.47C1058.5 910.737 1056.32 910.59 1055.08 911.125C1050.21 913.214 1045.12 912.479 1039.99 911.755H1040.01Z" fill="#F6F6F6"/>
<path d="M1107.04 902.719C1107.92 902.31 1108.99 901.26 1109.66 902.499C1109.96 903.055 1109.32 904.598 1108.66 905.101C1107.76 905.794 1107.55 904.283 1106.9 903.937C1106.95 903.538 1107 903.128 1107.05 902.73L1107.04 902.719Z" fill="#191919"/>
<path d="M781.505 973.127C780.382 972.906 779.353 974.208 778.199 973.305C779.206 971.406 780.256 970.461 781.505 973.127Z" fill="#F3F3F3"/>
<path d="M1112.47 901.523C1113.36 899.959 1114.64 899.592 1116.28 900.127C1115.43 901.764 1114.22 902.341 1112.47 901.523Z" fill="#414141"/>
</svg>
