<svg width="108" height="108" viewBox="0 0 108 108" fill="none" xmlns="http://www.w3.org/2000/svg">
<path d="M40.125 46.25H35.5V50.875H30.875V55.5H35.5V60.125H40.125V55.5H44.75V50.875H40.125V46.25Z" fill="#DBDBDB"/>
<path d="M67.875 48.5625C67.875 49.1758 68.1186 49.764 68.5523 50.1977C68.986 50.6314 69.5742 50.875 70.1875 50.875C70.8008 50.875 71.389 50.6314 71.8227 50.1977C72.2564 49.764 72.5 49.1758 72.5 48.5625C72.5 47.9492 72.2564 47.361 71.8227 46.9273C71.389 46.4936 70.8008 46.25 70.1875 46.25C69.5742 46.25 68.986 46.4936 68.5523 46.9273C68.1186 47.361 67.875 47.9492 67.875 48.5625Z" fill="#DBDBDB"/>
<path d="M63.25 53.1875C63.25 53.8008 63.4936 54.389 63.9273 54.8227C64.361 55.2564 64.9492 55.5 65.5625 55.5C66.1758 55.5 66.764 55.2564 67.1977 54.8227C67.6314 54.389 67.875 53.8008 67.875 53.1875C67.875 52.5742 67.6314 51.986 67.1977 51.5523C66.764 51.1186 66.1758 50.875 65.5625 50.875C64.9492 50.875 64.361 51.1186 63.9273 51.5523C63.4936 51.986 63.25 52.5742 63.25 53.1875Z" fill="#DBDBDB"/>
<path d="M72.5 53.1875C72.5 53.8008 72.7436 54.389 73.1773 54.8227C73.611 55.2564 74.1992 55.5 74.8125 55.5C75.4258 55.5 76.014 55.2564 76.4477 54.8227C76.8814 54.389 77.125 53.8008 77.125 53.1875C77.125 52.5742 76.8814 51.986 76.4477 51.5523C76.014 51.1186 75.4258 50.875 74.8125 50.875C74.1992 50.875 73.611 51.1186 73.1773 51.5523C72.7436 51.986 72.5 52.5742 72.5 53.1875Z" fill="#DBDBDB"/>
<path d="M67.875 57.8125C67.875 58.4258 68.1186 59.014 68.5523 59.4477C68.986 59.8814 69.5742 60.125 70.1875 60.125C70.8008 60.125 71.389 59.8814 71.8227 59.4477C72.2564 59.014 72.5 58.4258 72.5 57.8125C72.5 57.1992 72.2564 56.611 71.8227 56.1773C71.389 55.7436 70.8008 55.5 70.1875 55.5C69.5742 55.5 68.986 55.7436 68.5523 56.1773C68.1186 56.611 67.875 57.1992 67.875 57.8125Z" fill="#DBDBDB"/>
<path d="M72.5 37H35.5C25.325 37 17 45.325 17 55.5C17 65.675 25.325 74 35.5 74C42.4375 74 47.9875 70.3 51.225 64.75H56.3125C59.55 70.3 65.5625 74 72.0375 74C82.2125 74 90.5375 65.675 90.5375 55.5C91 45.325 82.675 37 72.5 37ZM72.5 69.375C66.4875 69.375 61.4 65.675 59.55 60.125H48.45C46.6 65.675 41.5125 69.375 35.5 69.375C27.6375 69.375 21.625 63.3625 21.625 55.5C21.625 47.6375 27.6375 41.625 35.5 41.625H72.5C80.3625 41.625 86.375 47.6375 86.375 55.5C86.375 63.3625 80.3625 69.375 72.5 69.375Z" fill="#DBDBDB"/>
</svg>
