<svg width="1023" height="890" viewBox="0 0 1023 890" fill="none" xmlns="http://www.w3.org/2000/svg">
<path d="M331.95 119.042C346.66 120.532 360.97 123.492 375.08 128.202C384.04 131.192 393.25 133.952 402.77 135.202C405.01 135.492 405.96 135.142 406.87 133.062C412.65 119.902 420.18 107.652 426.99 95.0322C436.63 77.1622 441.52 57.4722 449.05 38.7922C452.24 30.8822 455.21 22.8322 459.17 15.3122C461.38 11.1222 460.84 6.38224 463.29 2.39224C464.2 0.922244 463.91 -0.0777558 466.45 0.742244C469.39 1.69224 472.88 1.69224 476.13 0.442244C477.96 -0.257756 480.01 -0.227756 481.68 1.27224C481.75 3.17224 480.6 2.51224 479.63 2.25224C476.15 2.53224 472.67 2.98224 469.18 3.04224C466.56 3.09224 465.6 3.66224 466.31 6.55224C467.08 9.69224 468.36 12.7722 464.88 15.8722C462.57 17.9222 463.68 22.0122 463.15 25.1722C461.98 26.2622 461.13 27.4722 461.73 29.1922C461.35 34.6622 459.14 39.7522 456.7 44.3222C452.23 52.6822 449.69 61.8922 444.75 69.9822C442.03 70.1622 442.78 72.6522 441.99 74.1222C438.77 82.2522 435.13 90.1522 430.66 97.7022C426.87 104.102 424.42 111.152 421.56 118.002C419.64 122.602 416.64 126.922 414.03 131.312C411.39 135.742 411.88 138.562 416.82 139.972C423.35 141.842 429.1 145.322 435.2 148.082C436.55 148.692 438.44 149.792 437.6 151.302C436.61 153.082 435.22 151.262 433.93 150.732C426.93 147.832 420.63 143.492 413.42 140.972C410.51 139.952 409.13 140.612 407.97 143.212C402.58 155.222 396.38 166.862 391.59 179.152C390.53 181.872 388 183.632 387.35 187.062C386.68 190.632 388.11 190.162 390.15 190.162C398.54 190.162 406.94 190.422 415.32 190.082C422.01 189.802 428.17 192.222 434.64 192.972C436.65 193.202 435.97 195.382 437.45 196.342C434.42 197.862 432.46 195.532 430.15 195.272C418.3 193.932 406.41 194.182 394.53 193.752C384.7 193.402 384.99 193.162 380.08 201.632C378.66 204.072 378.58 206.692 377.28 209.092C374.78 213.702 373.56 218.802 370.39 223.362C368.5 226.082 366.69 230.042 365.92 234.182C363.99 244.642 359.23 254.402 354.79 263.932C349.59 275.082 347.27 287.012 342.88 298.332C338.49 309.652 334.71 321.222 330.88 332.752C328.05 341.292 326.14 350.172 322.76 358.472C320.31 364.492 318.78 370.942 317.31 376.962C315.53 384.202 311.53 391.362 312.8 399.382C313.06 401.032 314.82 401.622 314.73 403.692C310.31 403.452 310.86 406.882 309.89 409.862C305.71 422.742 303.5 436.112 299.84 449.122C295.99 462.842 292.3 476.602 289.17 490.542C286.75 501.312 283.41 511.912 281.68 522.872C281.37 523.882 281.48 524.482 282.74 523.962C295.38 514.842 308.6 507.812 325.03 511.932C326.28 512.242 327.79 511.632 328.97 512.032C330.01 512.392 331.67 509.982 331.93 512.532C332.09 514.062 330.57 514.802 329.21 514.902C327.57 515.022 325.72 515.222 324.29 514.612C315.09 510.702 306.83 514.812 298.45 517.512C291.77 519.672 286.64 524.522 280.99 528.422C278.93 529.842 278.65 532.462 278.19 534.592C275.29 548.032 272.7 561.532 269.95 574.992C268.97 579.762 267.81 584.502 266.52 590.192C269.52 588.582 271.79 587.242 274.17 586.112C282.1 582.342 290.43 579.612 298.73 576.822C299.38 577.522 299.34 578.232 298.77 578.952C296.75 580.162 294.92 581.332 292.4 581.952C284.56 583.862 277.56 588.122 270.06 591.022C264.32 593.242 264.8 598.442 263.86 602.632C260.51 617.642 256.98 632.682 254.93 647.902C252.92 662.852 249.05 677.412 247.15 692.372C245.92 702.032 242.41 711.372 240.58 720.982C238 734.492 236.03 748.122 233.8 761.692C233.28 764.842 233.66 767.312 237.81 766.812C237.97 768.792 236.9 768.492 235.7 767.952C231.12 769.612 232.23 774.012 231.95 777.142C230.95 788.602 228.27 799.732 226.06 810.942C224.5 818.812 225.43 819.942 233.73 819.072C239.21 818.502 244.42 816.992 249.71 815.712C250.73 816.152 251.28 816.822 250.82 817.982C243.69 820.742 236.24 821.582 228.67 822.102C227.51 822.182 225.69 820.842 224.88 822.692C224.02 824.652 226.37 825.342 226.83 826.812C227.06 827.812 226.8 828.312 225.68 827.942C221.63 832.902 222.41 839.202 221.02 844.902C220.87 845.542 220.83 846.212 220.81 846.872C220.75 849.162 219.98 851.812 217.67 851.572C215.54 851.352 216.66 848.532 216.75 846.932C217.03 842.062 217.49 837.232 219.16 832.532C219.93 830.372 220.63 827.622 217.8 825.922C217.54 825.762 217.07 825.572 217.07 825.412C217.41 818.882 211.91 821.192 208.79 819.902C208.18 819.162 208.23 818.292 208.99 817.902C209.76 817.512 210.39 818.362 211.03 818.772C219.57 818.692 219.49 818.682 221.05 810.342C223.39 797.822 226.54 785.452 227.76 772.712C228.06 769.562 226.91 768.212 224.14 767.642C222.69 767.342 221.23 767.082 219.77 766.802C219.47 766.592 219.37 766.372 219.46 766.142C219.55 765.912 219.64 765.802 219.74 765.802C219.82 765.652 219.92 765.372 219.97 765.382C227.36 766.362 228 761.512 229.29 755.892C232.24 743.102 233.82 730.132 235.87 717.212C236.92 710.582 238.27 703.952 240.14 697.512C243.06 687.492 243.62 677.092 245.41 666.912C247.84 653.102 251.5 639.452 252.77 625.542C253.31 619.672 257.97 614.982 256.28 608.912C259.97 606.902 258.57 603.432 258.79 600.392C259.11 595.952 257.14 596.392 254.05 597.762C250.41 599.372 246.55 600.492 242.78 601.822C242.19 601.232 242.19 600.632 242.78 600.042C245.18 597.242 248.84 597.002 251.96 596.012C257.36 594.302 261.17 591.612 261.97 585.692C263.9 571.532 269.01 557.992 270.36 543.732C270.68 540.302 273.29 537.422 272.54 533.332C267.15 538.112 260.53 539.982 254.71 543.332C253.62 543.962 253.28 543.242 252.75 542.682C251.84 542.412 251.19 541.992 251.75 540.892C259.17 539.592 264.9 535.092 270.83 530.912C273.25 529.202 274.54 527.282 275.22 524.242C277.42 514.462 279.42 504.632 282.06 494.932C284.14 487.252 286.26 479.372 287.25 471.572C288.33 463.042 292 455.322 293.05 447.022C294.32 437.032 299.75 428.372 301.08 418.402C301.49 415.312 303.99 412.222 304.39 408.672C304.79 405.112 304.17 402.892 299.74 403.512C292.08 404.582 284.39 405.452 276.69 406.232C268.33 407.092 260.14 409.832 251.5 408.012C248.93 407.472 248.01 406.202 247.13 404.322C258.81 404.992 270.13 402.872 281.54 401.202C288.43 400.192 295.41 398.672 302.48 399.342C305.23 399.602 306.95 398.112 307.21 396.052C307.96 390.112 312.61 385.152 312.66 379.702C312.71 374.222 314.95 369.762 315.75 364.792C316.46 360.352 318.68 356.652 319.96 352.542C321.07 349.012 321.2 346.612 316.68 344.932C307.86 341.642 298.79 340.282 289.55 339.092C284.14 338.402 278.78 337.952 273.33 338.032C269.27 338.092 265.73 339.372 262.5 341.722C260.4 336.432 255.92 339.772 252.59 339.112C249.77 338.552 246.6 341.282 243.44 337.942C248.57 337.112 253.07 335.542 257.85 334.652C261.16 334.042 264.64 334.302 267.76 333.182C271.49 331.832 274.42 329.042 277.48 326.052C279.28 330.662 273.73 331.762 273.81 335.792C278.59 336.642 283.36 334.332 288.19 335.222C294.39 336.362 300.66 337.162 306.86 338.282C311.81 339.172 316.73 340.292 321.64 341.402C323.52 341.832 323.2 340.162 323.46 339.452C325.32 334.292 327.43 329.162 328.64 323.832C330.16 317.142 333.09 311.072 335.34 304.732C337.66 298.212 339.33 291.362 341.73 284.782C346.49 271.712 350.6 258.402 356.45 245.722C359.9 238.252 362.62 230.452 366.03 222.962C370.64 212.822 375.6 202.842 380.4 192.802C378.05 191.042 374.83 192.302 372.67 190.262C372.18 189.792 372.2 189.362 372.74 188.952C373.88 188.952 375.05 188.772 376.16 188.972C380.85 189.802 382.66 187.302 384.9 183.422C391.54 171.922 392.99 158.272 400.49 147.202C401.3 146.012 401.53 144.432 402.07 143.052C403.57 139.252 402.64 137.892 398.25 136.962C386.96 134.572 375.69 131.772 364.74 128.142C352.8 124.182 340.51 122.862 328.19 121.342C326.66 121.152 324.81 122.062 323.71 120.162C326.03 116.872 329.12 119.062 331.89 119.032L331.95 119.042Z" fill="black"/>
<path d="M813.71 514.002C810.48 513.092 811.08 516.242 810.9 517.332C809.07 528.122 807.66 538.972 805.91 549.782C804.95 555.732 804.26 562.122 802.28 567.442C796.77 582.302 795.2 597.882 791.68 613.082C789.35 623.162 786.8 633.182 784.31 643.222C783.72 645.592 783.75 647.182 786.81 647.952C801.19 651.592 815.48 655.582 829.87 659.202C835.09 660.522 839.96 663.762 845.79 662.212C846.99 661.892 846.56 663.312 846.69 664.012C846.98 665.602 846.14 666.122 844.71 665.952C841.59 665.592 838.29 665.732 835.38 664.742C820.98 659.852 806.11 656.772 791.43 652.952C790.8 652.792 790.2 652.522 789.6 652.282C782.67 649.482 782.77 649.592 781.51 657.312C779.38 670.442 776.91 683.512 774.66 696.622C773.8 701.642 773.23 706.712 772.36 711.722C771.78 715.052 774.36 715.472 776.37 716.342C782.73 719.092 789.47 720.572 796.17 722.152C806.49 724.592 817.01 725.562 828.45 726.172C821.22 729.592 814.37 728.282 807.86 727.562C796.96 726.362 786.49 722.972 776.09 719.502C773.06 718.492 771.26 719.212 770.83 722.782C769.22 736.252 767.45 749.692 765.73 763.152C765.11 767.992 764.13 772.722 762.44 777.352C761.09 781.062 762.24 785.112 760.97 789.142C759.35 794.272 756.1 797.992 753.15 802.072C752.65 802.762 751.67 803.232 751.02 802.562C750.37 801.892 750.01 800.822 751.2 800.042C755.47 797.242 753.29 792.932 753.56 789.262C753.7 787.392 751.97 788.152 750.92 788.312C747.55 788.842 744.19 789.412 740.83 789.962C739.87 790.572 739.05 790.482 738.41 789.482C738.32 786.702 740.77 787.382 742.22 786.742C745.72 785.202 750.08 786.202 753.06 783.102C753.38 782.772 753.74 782.522 754.15 782.322C756.72 781.372 755.21 777.902 757.54 776.802C759.45 771.502 758.36 765.822 758.98 759.822C761.55 761.042 761.48 762.902 762.36 765.312C763.89 751.502 765.31 738.612 766.73 725.722C766.78 725.232 766.7 724.722 766.74 724.222C767.41 716.382 767.11 717.002 759.87 713.462C751.08 709.162 741.38 705.452 737.46 695.032C737.9 694.552 738.39 694.492 738.92 694.862C745.36 702.192 753.95 706.502 762.14 711.342C766.56 713.952 768.84 712.542 769.52 707.652C772.01 689.952 774.39 672.212 778.33 654.762C779.48 649.662 778.11 647.442 773.2 645.872C764.16 642.972 755.25 639.592 746.45 636.022C740.83 633.742 735.33 630.922 733.61 624.212C733.16 623.282 733.54 622.942 734.48 623.002C739.05 629.202 745.32 632.742 752.53 635.122C760.91 637.892 769.22 640.932 777.41 644.212C779.92 645.212 780.5 644.782 781.08 642.402C784.51 628.222 787.4 613.952 790.05 599.602C792.45 586.602 795.55 573.712 798.99 560.942C803.13 545.552 804.77 529.762 807.36 514.122C807.93 510.672 804.71 509.722 802.69 508.382C798.96 505.912 797.59 502.612 797.66 498.352C797.68 497.062 798.39 496.622 799.73 495.862C799.73 500.522 801.82 504.022 805.16 506.852C807.24 508.612 808.47 508.182 808.71 505.502C810.01 491.092 812.77 476.862 813.85 462.402C815.11 445.522 817.13 428.702 818.7 411.852C818.92 409.462 819.83 406.892 818.01 404.612C817.75 404.292 817.64 403.532 817.83 403.202C823.2 394.272 822.68 383.932 824.63 374.212C826.66 364.092 828.04 353.822 828.86 343.492C829.32 337.802 831.07 332.212 831.52 326.522C831.77 323.362 833.33 319.672 829.92 316.792C828.8 315.852 828.93 313.322 830.7 313.252C834.61 313.092 833.56 310.402 833.85 308.322C835.89 293.522 838.01 278.722 839.92 263.902C841.45 252.002 843.57 240.242 846.71 228.652C849.32 219.032 851.71 209.362 854.14 199.692C854.8 197.042 855.37 194.352 855.74 191.652C856 189.712 855.7 187.842 852.93 188.142C851.65 188.402 850.09 189.432 849.74 187.022C850.67 185.732 851.59 186.302 852.96 186.452C856.8 186.882 857.69 183.272 858.33 180.622C861 169.582 863.45 158.492 865.69 147.362C867.53 138.242 868.98 129.052 870.56 119.882C871.38 115.142 869.8 113.472 865.56 115.582C858.12 119.282 849.51 119.462 842.34 123.972C838.39 126.452 833.67 127.702 829.7 130.152C825.73 132.592 823.61 131.382 821.5 127.522C828.99 127.192 834.78 122.922 841.4 120.932C851.03 118.042 859.95 113.082 869.96 110.992C873.24 110.312 872.96 106.042 873.69 103.182C874.1 101.572 873.05 99.3322 875.95 99.1622C878.2 99.6522 877.02 101.102 876.82 102.272C876.17 108.902 876.07 108.082 883.29 107.242C897.83 105.542 911.24 99.1022 925.91 97.9722C933.51 97.3822 940.5 93.6422 947.78 91.3922C948.65 91.1222 949.33 90.9222 949.79 91.9222C950.28 92.3822 950.3 92.8522 949.84 93.3422C941.53 97.9622 932.32 99.2822 923.26 101.592C910.82 104.772 897.79 105.532 885.83 110.482C883.54 111.432 881.11 111.292 878.77 111.962C874.8 113.112 874.07 115.622 873.78 118.692C872.59 131.082 870.19 143.322 868.14 155.542C866.86 163.192 865.57 171.092 863.3 178.652C862.37 181.762 862.74 182.642 866.11 181.622C872.36 179.732 879.21 181.022 885.31 178.182C885.34 178.172 885.61 178.682 885.78 178.952C886.11 179.182 886.22 179.392 886.09 179.582C885.97 179.772 885.85 179.872 885.72 179.872C882.36 182.242 878.39 182.842 874.56 182.652C870.86 182.472 868.05 184.232 864.9 185.342C858.64 187.552 858.48 193.912 857.49 198.542C855.72 206.812 853.08 214.772 850.72 222.822C849.88 225.692 850.19 228.602 849.04 231.532C845.45 240.672 845.17 250.632 842.9 260.142C842.31 262.592 843.24 265.382 842.6 268.092C840.82 275.592 838.54 283.102 840.72 290.942C837.33 293.782 841.21 298.542 839.32 300.282C835.99 303.362 837.49 307.222 835.85 310.342C835 311.972 835.68 312.862 837.41 313.002C840.33 313.242 843.51 313.992 846.13 313.702C857.37 312.452 868.75 312.782 879.93 310.622C882.05 310.212 884.2 308.772 887.45 309.552C882.42 313.482 876.3 311.652 871.71 314.512C872.73 316.682 875.14 315.402 877.48 317.352C867.72 316.392 859.57 317.702 851.68 321.572C847.35 323.702 846.32 320.292 846.82 316.542C845.33 316.722 844.14 316.922 842.94 316.992C836.88 317.362 833.97 319.572 833.97 325.302C833.97 333.182 832.15 340.822 831.61 348.622C831.09 356.172 828.88 363.632 828.66 371.162C828.36 381.552 825.57 391.542 824.81 401.822C824.47 406.422 826.82 407.542 830.61 407.872C837.16 408.442 843.37 406.392 849.72 405.502C853.72 404.942 857.34 403.042 861.07 401.592C865.21 399.982 870.42 401.092 875.17 401.162C875.84 401.172 876.66 401.932 876.57 402.902C876.45 404.302 875.57 404.712 874.22 404.912C868.65 405.752 863.05 406.392 857.55 407.812C854.56 408.582 852.11 410.062 849.66 411.592C843.06 415.692 835.53 416.402 828.21 417.862C827.28 418.052 825.85 417.372 825.11 416.632C820.99 412.542 821.04 418.642 821.11 418.832C823.8 426.382 819.21 433.392 819.65 440.782C820.4 453.442 817.22 465.842 816.55 478.452C816.07 487.452 814.33 496.442 812.38 505.272C811.49 509.302 812.19 511.542 815.68 513.212C815.54 514.802 814.69 514.542 813.72 513.962L813.71 514.002Z" fill="#010101"/>
<path d="M754.54 782.932C754.34 782.932 754.13 782.932 753.93 782.932C750.24 782.012 746.56 782.812 743.07 783.652C738.83 784.672 734.58 785.172 730.28 785.612C727.27 785.922 724.17 787.412 721.81 783.872C721.12 782.842 719.28 783.052 718 783.332C712.84 784.452 707.41 784.532 702.59 787.062C701.54 787.612 700.43 788.002 699.24 787.882C688.95 786.892 679.83 791.622 670.27 793.422C680.05 797.362 689.54 794.562 699.08 792.242C701.81 791.582 703.63 789.562 705.86 788.162C709.13 786.102 710.47 786.762 711.62 790.762C711.51 791.232 711.31 791.672 711.03 792.062C707.25 795.452 702.83 797.462 697.68 797.932C701.11 798.502 704.59 798.252 707.32 796.592C713.89 792.582 721.13 792.572 728.35 792.062C729.5 792.282 731.06 792.022 730.78 794.012C719.01 798.532 706.47 799.542 694.3 802.242C687.91 803.662 682.07 800.962 675.95 802.282C672.6 803.002 669.46 805.462 665.74 803.922C664.48 801.432 662.35 803.002 660.6 802.832C656.78 800.052 652.72 802.942 648.65 802.412C640.3 801.332 632.4 805.232 624.25 806.772C623.68 806.882 623.18 807.352 622.65 807.662C616.42 806.882 611 809.232 605.68 812.002C604.53 812.602 603.9 813.442 604.26 814.792C604.26 815.252 604.1 815.652 603.79 815.992C602.88 818.072 601.21 816.972 599.79 816.932C597.9 817.642 597.79 815.432 596.6 814.992C596.02 815.332 595.43 815.672 594.85 816.012C594.09 817.302 593.08 817.842 591.64 817.082C585.76 818.602 579.37 818.842 574.83 823.762C575.31 824.492 576.1 825.032 576.12 826.022C563.05 829.642 550 833.342 536.9 836.842C531.88 838.182 525.9 838.622 521.92 840.602C515.1 843.992 506.99 844.452 500.92 850.352C500.72 847.642 499.92 845.542 503.14 844.892C507.39 844.032 512.56 844.832 513.7 838.302C513.9 837.152 518.36 837.272 518.65 833.812C515.91 834.412 513.61 832.842 510.7 832.662C515.49 829.662 520.47 831.792 525.15 830.962C527.42 830.562 529.54 830.292 531.71 829.312C533.14 828.662 535.92 826.922 536.72 830.592C536.85 831.192 536.81 831.782 537.9 831.522C547.15 829.272 556.92 829.012 565.52 824.382C567.46 823.332 568.95 821.452 570.65 819.952C570.8 819.382 571.37 819.252 571.73 818.892C580.92 815.892 590.18 813.092 599.26 809.792C603.55 808.232 607.82 806.522 612.03 804.792C617.44 802.572 623.14 801.522 628.67 800.042C632.3 799.072 633.82 797.762 634.16 794.062C634.82 797.602 637.35 797.562 639.4 796.732C644.53 794.662 649.94 793.722 655.21 792.232C661.31 790.512 667.51 788.852 673.78 788.132C676.55 787.812 677.37 785.402 679.47 785.022C683.69 784.242 687.08 779.772 692.27 782.782C694.62 784.152 698 782.782 700.46 781.792C707.23 779.072 714.36 779.682 721.28 779.152C725.33 778.842 729.6 780.112 733.93 780.302C741.97 780.652 748.96 779.032 755.64 774.962C756.75 777.832 756.6 780.532 754.49 782.932H754.54Z" fill="#010101"/>
<path d="M445.74 588.002C435.79 595.592 429.33 606.182 421.89 615.922C415.8 623.902 409.58 631.802 403.74 639.962C397.86 648.162 392.76 656.942 386.59 664.902C381.02 672.082 377.2 680.472 370.73 686.992C369.47 688.262 368.41 687.722 367.34 687.902C373.57 678.452 379.57 668.962 385.95 659.732C397.11 643.612 407.71 627.102 420.45 612.082C425.84 605.722 430.28 598.452 435.93 592.292C440.75 587.042 445.17 581.542 451.59 577.532C458.46 573.242 463.71 566.412 469.84 560.882C480.79 551.012 491.42 540.752 504 532.862C505.04 532.212 505.65 530.912 506.65 530.152C507.67 529.372 508.92 528.872 510.31 528.122C511.26 531.812 507.97 532.932 506.32 534.132C489.42 546.512 474.59 561.172 460.2 576.232C456.37 580.242 452.07 583.052 447.64 585.972C446.65 586.312 447.66 588.522 445.75 587.992L445.74 588.002Z" fill="#020202"/>
<path d="M624.73 228.002C633.27 220.172 641.6 212.122 650.93 205.182C659.13 199.082 664.21 190.212 670.53 182.452C680.61 170.072 689.56 156.832 699.15 144.072C705.6 135.492 712.35 127.082 718.26 118.112C723.81 109.692 728.75 100.862 733.96 92.2222C735.64 92.2722 735.28 93.1722 734.76 94.1422C733.46 104.312 726.95 111.832 721.51 119.862C716.67 127.002 711.73 134.082 706.54 140.972C696.75 153.972 687.43 167.322 676.9 179.762C673.61 183.642 671.35 188.402 668.59 192.732C663.72 200.382 655.6 204.462 649.12 210.362C642.38 216.502 635.14 222.102 628.47 228.322C627.02 229.672 626.13 229.342 624.81 229.212C624.28 228.842 624.25 228.442 624.73 228.012V228.002Z" fill="#020202"/>
<path d="M433.82 847.002C423.72 851.542 413.47 855.682 402.87 858.952C402.06 859.562 401.25 859.442 400.45 858.952C399.78 858.482 399.07 858.112 398.2 858.252C397.77 858.292 397.4 858.172 397.08 857.892C393.33 855.332 389.73 858.132 386.2 858.542C377.57 859.562 369.06 858.452 360.6 857.722C349.78 856.782 339.1 854.292 328.3 853.072C316.71 851.762 305.19 850.032 293.7 848.072C279.64 845.682 266.85 839.202 253.17 835.592C252.07 835.302 249.11 835.492 249.97 832.912C250.65 830.862 253.19 831.722 254.24 832.192C259.75 834.682 265.61 835.952 271.33 837.702C280.56 840.532 289.57 843.972 299.06 846.072C307.13 847.862 315.4 847.942 323.4 849.652C335.82 852.302 348.55 852.402 360.98 855.002C370.1 856.902 379.43 855.872 388.76 855.392C399.11 854.872 408.55 850.952 418.55 849.292C423.21 848.522 428.02 846.202 432.89 844.952C434.73 844.932 434.37 845.922 433.82 846.992V847.002Z" fill="#020202"/>
<path d="M0.820102 887.452C-0.869898 882.032 0.480096 877.372 1.0801 872.972C2.4901 862.682 4.3101 852.352 7.1801 842.392C9.7901 833.322 9.9201 823.872 13.1501 814.882C17.9601 801.512 21.8101 787.802 26.8801 774.502C29.1901 768.432 30.8301 762.122 33.7701 756.272C35.1301 753.572 36.7601 751.332 40.2601 749.522C32.6801 766.082 25.6801 782.052 21.2101 799.492C25.8501 797.352 24.6701 790.312 30.4901 789.882C31.3401 790.332 31.0601 791.342 30.6201 791.872C22.7801 801.262 20.0101 812.742 18.0501 824.302C17.5901 827.002 15.2201 826.552 14.8201 828.872C12.5401 842.212 8.0501 855.042 5.0401 868.202C4.0701 872.432 2.6301 876.832 2.8901 881.352C3.0101 883.432 2.2901 885.142 0.8101 887.452H0.820102Z" fill="#020202"/>
<path d="M73.6001 889.762C70.7001 881.032 74.2301 873.242 76.8901 865.512C80.6401 854.602 85.0801 843.932 89.1401 833.122C89.8501 831.242 90.8401 829.762 92.2701 828.342C98.0401 822.622 100.82 815.112 104.23 807.952C106.78 802.592 109.24 797.212 111.24 791.632C112.13 789.162 114.07 787.542 115.94 785.932C116.5 785.452 118.17 785.332 118.52 785.742C119.2 786.542 118.71 787.372 117.6 788.022C115.2 789.452 113.65 791.482 114.27 794.582C114.39 795.172 114.27 796.002 113.91 796.482C108.98 803.232 107.83 811.512 104.73 818.982C101.31 827.222 97.2601 835.222 93.0201 843.072C91.1301 846.582 90.1901 850.382 88.7501 853.992C86.6301 859.342 84.3801 864.732 81.3601 869.432C77.2901 875.772 73.5001 881.892 73.5901 889.772L73.6001 889.762Z" fill="#010101"/>
<path d="M509.9 593.372C508.94 597.122 505.12 598.522 503.21 601.552C496.93 611.522 488.85 620.312 483.67 631.022C483.39 631.602 482.95 632.392 482.44 632.532C472.51 635.102 470.08 644.952 464.13 651.372C461.64 654.052 459.65 657.182 457.25 659.952C449.3 669.102 442.45 679.092 435.55 689.002C431.5 694.812 426.71 700.212 423.82 706.812C423.18 708.272 421.96 709.102 420.7 709.922C419.79 710.102 419.25 709.952 419.74 708.862C421.14 703.492 424.85 699.392 427.72 694.882C433.15 686.332 438.78 677.882 444.87 669.792C452.14 660.142 459.96 650.912 467.59 641.542C469.16 639.622 470.9 637.862 470.71 635.112C470.15 633.952 470.89 633.492 471.78 633.112C479.62 627.212 486.91 620.972 485.9 609.692C489.08 611.292 487.11 614.132 487.46 618.172C494.93 607.482 502 598.332 509.65 589.642C510.59 590.832 510.3 592.102 509.89 593.382L509.9 593.372Z" fill="#020202"/>
<path d="M562.4 196.122C559.57 195.792 559.15 194.602 558.65 193.022C554.92 181.262 555.24 169.332 556.6 157.262C557.61 148.292 558.1 139.272 559.76 130.372C562.24 117.052 564.6 103.712 566.97 90.3722C567.91 85.1222 565.14 80.1122 565.92 74.4822C570.11 82.6822 571.47 90.8522 569.69 99.6522C565.95 118.232 562.56 136.912 560.69 155.742C559.39 168.922 556.9 182.412 562.39 196.122H562.4Z" fill="#020202"/>
<path d="M235.74 767.962C236.62 767.912 237.43 767.732 237.85 766.822C248.32 767.492 258.3 765.002 268.21 762.102C279.16 758.902 289.52 754.422 299.57 748.942C310.39 743.052 321.33 737.452 331.68 730.702C337.38 726.982 343.85 724.562 350.78 723.852C352.49 723.682 354.53 723.452 354.65 725.702C354.77 727.872 352.67 726.672 351.57 726.942C342.11 729.282 333.94 734.292 325.44 738.812C318.36 742.582 311.9 747.322 304.37 750.542C297.96 753.282 291.92 757.402 285.39 760.202C269.89 766.852 253.65 769.682 236.79 768.782C236.42 768.762 236.08 768.232 235.72 767.942L235.74 767.962Z" fill="#020202"/>
<path d="M510.26 172.772C507.53 173.222 505.92 172.602 505.12 170.772C500.97 161.412 499.92 151.432 499.87 141.382C499.83 132.272 499.84 123.092 500.94 114.082C502.28 103.112 501.48 92.0523 503.35 81.0323C504.26 75.6623 506.39 70.3623 506.2 64.7523C506.15 63.3923 506.61 61.8423 508.43 62.2223C510.88 62.7323 508.93 64.4923 508.79 65.2823C507.14 74.3223 507.31 83.5123 506.41 92.6023C505.15 105.212 504.21 117.892 503.94 130.562C503.74 139.792 504.24 149.062 505.58 158.282C506.07 161.692 507.16 164.902 507.64 168.232C507.9 170.012 508.97 170.942 510.27 172.772H510.26Z" fill="#020202"/>
<path d="M561.9 713.912C557.37 704.902 555.26 695.102 553.03 685.392C548.21 664.452 547.75 643.092 548.85 621.802C549.3 613.022 549.76 604.072 551.5 595.352C551.8 593.832 550.03 592.612 551.57 590.662C555.1 593.132 554.77 596.792 554.72 600.232C554.59 608.592 552.97 616.842 552.86 625.232C552.58 646.662 552.06 668.082 556.85 689.172C558.58 696.822 560.79 704.352 562.78 711.942C563.37 712.992 563.67 713.902 561.91 713.912H561.9Z" fill="#020202"/>
<path d="M685.69 492.032C670.34 485.992 654.87 480.232 639.67 473.842C627.29 468.642 614.72 463.712 603 457.122C591.06 450.412 580.43 441.802 570.2 432.742C566.64 429.592 563.2 426.322 559.24 423.622C555.76 421.252 555.51 418.382 558.76 414.702C557.93 419.492 560.88 421.362 563.75 423.502C567.71 426.452 571.65 429.502 575.16 432.952C584.56 442.192 595.29 449.642 606.77 455.862C620.88 463.512 635.75 469.632 650.69 475.542C661.36 479.762 671.96 484.132 682.56 488.502C684.34 489.232 685.98 490.312 687.69 491.232C687.53 492.732 686.72 492.632 685.7 492.042L685.69 492.032Z" fill="#030303"/>
<path d="M650.73 711.692C643.51 708.652 640.35 701.882 637.15 695.652C634.04 689.592 631.96 682.882 630.27 676.242C625.66 658.122 621.08 639.972 619.72 621.202C619.26 614.822 618.36 608.482 617.66 602.122C617.74 599.962 615.59 597.362 618.92 595.862C621.28 597.482 621.4 600.382 621.45 602.502C621.83 618.962 624.32 635.142 627.72 651.162C631.5 668.982 634.92 686.962 644.8 702.822C646.77 705.982 649.67 708.152 652.05 710.862C651.8 711.452 651.22 711.512 650.71 711.702L650.73 711.692Z" fill="#020202"/>
<path d="M847.54 851.572C845.39 846.462 848.57 842.182 850.04 837.932C852.67 830.352 854.63 822.642 856.7 814.932C861.48 797.152 866.61 779.452 870.99 761.572C872.18 756.712 873.03 751.612 873.96 746.652C875.26 739.702 878.32 733.092 881.31 726.572C884.04 730.872 881.34 734.532 880.24 737.842C877.14 747.172 875.08 756.762 872.31 766.162C868.59 778.802 866.72 792.022 862.61 804.512C860.23 811.732 858.74 819.192 856.6 826.432C854.06 835.012 849.91 842.922 847.52 851.572H847.54Z" fill="#030303"/>
<path d="M250.86 818.002C250.49 817.242 250.12 816.492 249.75 815.732C256.03 814.172 261.89 811.722 267.6 808.592C281.38 801.052 295.31 793.822 309.87 787.752C318.85 784.012 327.94 780.832 337.27 778.292C341.46 777.152 346.07 778.772 350.31 776.892C350.97 776.602 351.13 777.662 351.16 778.292C351.25 779.872 350.59 780.642 348.91 780.902C345.04 781.492 341.21 780.902 337.2 781.922C319.01 786.562 302.03 793.942 285.62 802.872C276.16 808.022 266.97 813.672 256.56 816.932C254.62 817.542 252.68 817.302 250.86 818.002Z" fill="#020202"/>
<path d="M895.54 855.932C896.57 856.632 896.12 858.832 897.91 858.612C899.58 858.412 899.36 856.772 899.79 855.532C903.7 843.992 904.75 831.912 906.86 820.022C909.84 803.242 913.1 786.492 916.85 769.862C918.8 761.182 922.11 752.802 924.64 744.242C925.15 742.512 926.33 741.212 927.61 741.582C929.45 742.112 928.68 743.772 928.01 745.192C920.84 760.232 918.45 776.632 914.74 792.642C912.43 802.622 910.3 812.752 909.15 822.832C908.15 831.572 905.36 839.892 904.74 848.602C904.53 851.562 902.66 853.992 902.24 856.982C902 858.692 900.56 861.312 897.94 860.992C895.18 860.652 895.52 857.862 894.86 855.932C895.1 855.452 895.33 855.452 895.56 855.932H895.54Z" fill="#020202"/>
<path d="M969.65 870.932C970.72 867.642 971.73 864.432 972.8 861.242C977.03 848.652 977.34 835.492 978.85 822.462C980.57 807.602 980.81 792.632 982.91 777.852C983.53 773.502 985.76 769.242 986.48 764.712C986.73 763.152 987.35 761.452 989.19 761.972C991.29 762.562 990.9 764.542 990.4 766.172C988.89 771.012 987.41 775.862 985.75 780.652C983.91 785.942 985 791.432 984.44 796.812C982.6 814.402 981.74 832.082 977.96 849.452C976.46 856.342 975.44 863.242 971.79 869.422C971.36 870.152 971.07 870.912 969.66 870.932H969.65Z" fill="#030303"/>
<path d="M1017.38 865.232C1013.92 862.242 1013.75 857.742 1014.34 855.312C1019.05 835.922 1020.05 816.292 1019.72 796.482C1019.57 787.502 1019.66 778.512 1019.68 769.522C1019.68 768.362 1018.68 766.432 1020.74 766.382C1022.61 766.342 1022.72 768.182 1022.71 769.762C1022.69 779.242 1022.73 788.732 1022.68 798.212C1022.63 807.752 1023.1 817.342 1022.23 826.802C1021.42 835.592 1019.97 844.362 1018.7 853.122C1018.15 856.942 1018.66 860.912 1017.39 865.222L1017.38 865.232Z" fill="#020202"/>
<path d="M876.79 102.302C876.66 101.222 876.93 100.022 875.92 99.1922C875.64 86.5622 879.61 74.9022 883.53 63.1022C888.7 47.5122 894.64 32.0522 895.7 15.3822C895.8 13.8822 895.76 11.8822 897.67 12.1122C900.16 12.4022 899.85 14.8622 899.51 16.5422C898.04 23.6622 896.39 30.7422 894.73 37.8222C890.95 53.9022 884.48 69.1822 880.52 85.2422C879.12 90.9122 879.11 96.8622 876.81 102.302H876.79Z" fill="#030303"/>
<path d="M433.82 847.002L432.89 844.962C447.6 837.742 463.18 832.982 479.03 829.152C486.62 827.312 494.38 826.142 502.09 824.792C503.7 824.512 505.41 824.832 507.07 824.772C508.35 824.722 508.98 825.252 508.76 826.492C508.37 828.692 507.46 826.602 506.81 826.702C503.27 827.212 499.71 827.662 496.2 828.332C488.49 829.802 480.77 831.252 473.12 832.982C468.03 834.132 463.02 835.662 458.04 837.222C457.17 837.492 455.47 837.682 456.17 839.892C456.59 841.232 455.75 843.482 453.62 841.002C452.34 840.252 451.51 840.722 450.96 841.972C446.68 844.692 441.61 844.542 436.92 845.782C435.81 846.072 434.77 846.362 433.83 847.002H433.82Z" fill="#060606"/>
<path d="M876.02 579.492C873.31 583.002 869.09 582.672 865.6 582.832C852.65 583.422 840.04 581.342 827.62 577.362C821.58 575.432 815.4 573.962 809.64 571.222C808.83 570.842 807.28 571.012 807.75 569.592C808.24 568.102 809.82 568.582 810.71 569.002C818.42 572.652 826.66 574.852 834.9 576.512C845.13 578.572 855.39 581.012 866.13 579.562C869.21 579.142 872.65 580.142 876.03 579.492H876.02Z" fill="#040404"/>
<path d="M579.88 807.202C574.93 810.522 569.02 811.192 563.51 812.832C555.78 815.132 547.6 815.972 539.94 818.452C534.15 820.332 528.43 822.312 522.52 823.852C518.96 824.782 515.32 824.392 511.84 825.372C511 825.612 510.53 825.322 510.36 824.642C510.09 823.532 511 823.292 511.78 823.222C526.12 821.832 539.1 815.142 553.2 812.632C562.14 811.032 570.66 807.312 579.76 806.102C580.36 806.412 580.4 806.782 579.88 807.212V807.202Z" fill="#060606"/>
<path d="M298.81 578.962C298.8 578.252 298.78 577.542 298.77 576.832C307.39 572.052 316.68 569.042 325.93 565.752C332.53 563.402 339.08 560.522 345.52 557.572C347.63 556.602 349.76 555.722 352.18 555.892C352.97 555.942 353.94 555.552 353.9 556.852C353.87 557.782 353.98 558.702 352.54 559.022C337.95 562.242 324.93 569.722 310.9 574.512C306.87 575.882 302.94 577.732 298.81 578.962Z" fill="#050505"/>
<path d="M372.8 188.972C372.78 189.412 372.75 189.842 372.73 190.282C363.34 188.392 354.36 185.072 345.19 182.432C334.05 179.232 323.57 173.602 311.68 173.022C310 172.942 308.19 172.342 306.83 171.052C306.87 168.962 308.27 169.822 309.31 169.912C319.87 171.462 329.84 175.152 339.98 178.282C348.68 180.962 357.42 183.492 366.15 186.072C368.49 186.762 370.77 187.562 372.8 188.972Z" fill="#070707"/>
<path d="M671.77 241.252C676.6 237.972 679.62 232.822 684.31 229.322C689.65 225.332 695.47 221.942 700.15 217.092C701.21 216.002 702.35 215.812 704.59 216.432C695.24 227.222 683.27 234.232 673.01 243.192C671.19 243.442 671.21 242.522 671.77 241.252Z" fill="#060606"/>
<path d="M624.73 228.002C624.76 228.402 624.78 228.802 624.81 229.202C624.95 230.092 625.52 231.482 625.15 231.802C614.26 241.242 603.94 251.272 594.44 262.382C593.36 260.652 593.61 259.532 594.57 258.452C598.84 253.672 602.99 248.782 607.4 244.142C611.63 239.692 616.24 235.612 620.42 231.122C621.72 229.732 623 228.662 624.72 228.002H624.73Z" fill="#060606"/>
<path d="M467.81 839.832C473.41 840.412 478.78 840.052 483.68 835.492C481.95 839.542 484.45 840.062 487.47 840.352C485.34 842.772 483.04 841.622 481.17 842.142C478.33 842.922 473.85 841.492 474.88 847.162C474.99 847.772 467.51 851.182 467.1 850.742C466.31 849.882 466.48 848.832 467.13 848.052C468.73 846.132 470.45 844.312 472.18 842.392C471.21 840.962 468.72 843.092 467.75 841.002C467.46 840.602 467.46 840.212 467.81 839.832Z" fill="#070707"/>
<path d="M469.68 865.452C466.02 867.782 461.94 868.932 457.8 870.132C451.22 872.032 444.56 873.522 437.87 874.942C436.91 875.142 436.03 876.052 435.49 874.762C434.96 873.492 436.34 873.232 437.09 872.962C446.9 869.452 457.4 868.352 467.1 864.432C467.56 864.242 468.31 864.782 468.92 864.982C469.36 864.842 469.61 865.002 469.67 865.462L469.68 865.452Z" fill="#0A0A0A"/>
<path d="M579.88 807.202C579.84 806.832 579.8 806.462 579.76 806.092C587.5 803.612 595.28 801.292 603.31 799.982C606.71 799.432 609.86 797.592 613.39 797.982C614.19 798.072 615.54 796.032 615.84 798.472C616.02 799.962 614.91 799.982 613.92 800.052C607.18 800.542 600.83 802.842 594.36 804.502C589.57 805.732 584.88 807.192 579.88 807.192V807.202Z" fill="#0E0E0E"/>
<path d="M742.76 170.132C746.46 166.082 750.17 162.122 754.51 158.642C758.49 155.442 760.79 150.422 764.91 147.172C766.74 147.202 766.29 148.232 765.84 149.272C761.71 154.592 757.28 159.632 752.18 164.072C749.41 166.492 748.01 170.542 743.68 171.072C742.83 171.292 742.35 171.162 742.76 170.142V170.132Z" fill="#0B0B0B"/>
<path d="M316.8 868.922C317.93 872.212 320.31 872.712 323.62 873.152C330.92 874.132 338.3 872.722 345.61 874.112C345.43 875.892 344.18 875.802 343.12 875.782C334.44 875.672 325.73 875.922 317.09 875.232C312.4 874.862 316.54 870.972 315.66 868.902C316.04 868.562 316.42 868.572 316.8 868.922Z" fill="#0D0D0D"/>
<path d="M621.65 370.102C615.81 366.252 609.84 362.592 604.21 358.452C602 356.822 602.29 353.872 603.03 350.852C605.27 352.402 604.82 355.482 606.94 356.462C607.65 356.792 609.49 360.072 609.85 355.962C609.98 354.512 611.42 355.492 611.39 355.992C610.88 363.102 617.45 364.022 621.2 367.392C621.78 367.912 622.19 368.622 622.68 369.242C622.73 369.992 622.59 370.532 621.65 370.102Z" fill="#080808"/>
<path d="M242.83 600.082V601.862C233.82 604.122 225.12 607.542 215.9 609.002C215.19 609.542 214.48 609.542 213.79 608.962C213.8 608.472 213.71 607.582 213.85 607.552C223.49 604.992 232.67 600.602 242.84 600.082H242.83Z" fill="#080808"/>
<path d="M331.95 119.042C329.26 119.692 326.26 118.112 323.77 120.172C314.46 118.822 304.86 119.392 295.86 115.962C295.72 115.062 295.86 114.482 296.96 115.002C308.72 115.492 320.28 117.692 331.94 119.042H331.95Z" fill="#0A0A0A"/>
<path d="M603.75 815.182C602.48 814.632 601.21 814.162 602.55 812.392C603.83 810.712 617.94 805.162 620.01 805.822C620.99 806.132 621.78 807.032 622.66 807.672L622.38 807.902L622.01 807.882C620.57 808.872 618.68 809.232 617.74 810.932C616.34 812.122 614.31 810.322 613.01 811.942C611.66 812.082 610.7 813.102 609.49 813.552C607.6 814.172 605.83 815.222 603.75 815.182Z" fill="#EAEAEA"/>
<path d="M719.75 811.922C719.53 812.342 719.39 813.042 719.08 813.132C710.84 815.442 702.44 816.572 693.81 816.182C699.74 813.082 706.36 813.112 712.68 811.872C715.04 811.222 717.4 811.132 719.75 811.922Z" fill="#080808"/>
<path d="M885.7 179.902C885.68 179.592 885.7 179.282 885.76 178.982C888.83 175.252 893.7 175.892 897.65 174.522C901.69 173.132 906.38 173.222 910.72 172.242C911.06 172.422 911.18 172.602 911.06 172.782C910.95 172.962 910.83 173.052 910.72 173.052C906.19 176.862 900.23 176.232 895.04 178.012C892.07 179.032 888.83 179.292 885.71 179.892L885.7 179.902Z" fill="#101010"/>
<path d="M773.61 139.062C774.74 137.682 775.8 136.252 777.02 134.952C779.99 131.782 781.03 128.922 775.77 127.042C777.81 123.462 782.88 129.762 783.98 124.152C785.02 124.102 785.24 124.602 784.88 125.492C783.47 131.392 779.73 135.832 775.72 140.102C774.61 140.562 774.01 140.002 773.6 139.062H773.61Z" fill="#080808"/>
<path d="M742.76 170.132C743.07 170.442 743.37 170.752 743.68 171.062C742.71 175.352 739.1 177.762 736.58 180.952C735.4 182.452 733.89 183.692 732.53 185.052C731.39 185.642 730.23 186.322 729.8 184.312C733.59 179.102 737.77 174.242 742.76 170.122V170.132Z" fill="#070707"/>
<path d="M648.08 265.202C643.25 270.192 638.31 275.042 631.76 277.802C631.49 277.472 631.41 277.092 631.51 276.682C631.96 275.532 632.42 274.382 633.77 274.002C638.04 270.952 641.16 266.482 645.97 264.092C647.03 263.782 647.67 264.272 648.08 265.202Z" fill="#0F0F0F"/>
<path d="M393.04 861.012C392.07 864.022 389.37 864.472 386.85 865.192C381.5 866.722 376.53 869.562 370.79 869.722C370.81 869.542 370.84 869.362 370.86 869.192C377.19 864.812 384.64 863.262 391.77 860.902C392.24 860.422 392.66 860.462 393.04 861.022V861.012Z" fill="#080808"/>
<path d="M309.31 169.912C308.39 170.082 307.42 170.152 306.83 171.052C299.76 170.482 292.64 170.202 285.84 167.852C285.3 167.342 285.21 166.832 285.84 166.322C293.65 167.632 301.7 167.352 309.32 169.912H309.31Z" fill="#111111"/>
<path d="M624.82 283.232C623.61 286.592 620.37 288.102 618.23 291.012C614.9 284.262 620.26 282.052 623.7 278.932C625.64 279.962 626.04 281.382 624.82 283.232Z" fill="#151515"/>
<path d="M251.8 540.932C252.13 541.532 252.47 542.122 252.8 542.722C247.27 546.112 241.53 548.772 234.79 547.992L234.84 548.132C236.08 544.702 239.76 544.712 242.12 544.322C245.68 543.732 248.51 541.812 251.81 540.932H251.8Z" fill="#0C0C0C"/>
<path d="M668.81 247.202C665.33 249.872 663.26 254.162 658.91 255.842C658.24 255.402 657.94 254.752 657.87 253.972C657.87 253.192 658.15 252.522 658.71 251.982C659.75 250.622 659.3 247.632 662.85 249.142C664.41 249.812 664.14 246.662 665.39 245.402C667.26 243.502 666.88 245.492 667.43 245.912C668.62 245.542 668.98 246.072 668.81 247.182V247.202Z" fill="#111111"/>
<path d="M624.82 283.232C624.92 281.672 624.46 280.272 623.7 278.932C624.94 276.212 627.55 275.312 630 274.202C632.38 274.222 632.57 275.462 631.73 277.292C631.73 277.462 631.75 277.632 631.76 277.802C630.78 279.562 628.23 280.002 627.81 282.112C627.36 284.362 625.94 283.212 624.83 283.232H624.82Z" fill="#0E0E0E"/>
<path d="M834.62 518.802C841.63 518.662 847.94 521.452 854.38 523.822C847.33 525.302 841.22 521.572 834.74 519.912C834.17 519.592 834.14 519.222 834.62 518.802Z" fill="#0A0A0A"/>
<path d="M985.61 148.912C986.91 144.962 991.11 146.992 993.49 145.132C994.43 144.392 995.98 144.472 997.19 144.012C998.21 143.622 999.44 142.302 1000.17 143.662C1000.94 145.102 999.53 146.072 998.19 146.292C993.85 147.002 990.31 150.302 985.7 150.052C985.42 149.812 985.31 149.572 985.38 149.302C985.45 149.032 985.53 148.902 985.61 148.902V148.912Z" fill="#0D0D0D"/>
<path d="M840.8 190.242C838.91 192.362 828.58 194.212 826.97 192.652C826 191.722 826.69 190.252 827.43 190.322C830.8 190.632 834.09 188.912 837.45 189.982C838.6 189.642 839.94 186.752 840.8 190.232V190.242Z" fill="#131313"/>
<path d="M696.04 412.902C702.17 414.632 707.9 417.302 713.31 420.802C706.57 420.062 700.72 416.832 694.8 413.812C694.74 412.852 695.07 412.432 696.05 412.902H696.04Z" fill="#0A0A0A"/>
<path d="M813.71 514.002C814.36 513.752 815.02 513.502 815.67 513.252C821.04 514.772 826.87 514.762 831.77 517.922C831.93 518.962 831.73 519.612 830.47 519.142C824.8 517.712 819 516.712 813.72 514.002H813.71Z" fill="#0E0E0E"/>
<path d="M689.92 805.902C691.43 808.742 690.12 811.772 691.8 814.272C692.36 815.102 692.31 816.762 690.63 816.892C688.94 817.012 686.7 817.742 686.13 815.252C685.93 814.402 684.85 812.712 687.59 812.202C690.66 811.632 687.61 807.862 689.92 805.912V805.902Z" fill="#1A1A1A"/>
<path d="M818.8 195.112C816.47 194.302 812.04 196.902 811.98 193.302C811.89 188.792 816.45 192.282 818.74 191.302C819.57 190.942 820.66 191.172 821.64 191.132C824.07 194.852 820.18 194.092 818.81 195.122L818.8 195.112Z" fill="#0C0C0C"/>
<path d="M540.92 555.272C537.15 559.492 533.37 563.712 529.6 567.942C528.68 568.092 528.32 567.792 528.72 566.862C530.92 561.302 535.66 557.922 539.76 553.982C540.78 553.842 541.47 554.002 540.92 555.272Z" fill="#101010"/>
<path d="M853.84 97.4523C849.54 99.3823 845.24 101.312 840.95 103.242C839.73 103.652 839.46 103.082 839.67 102.012C843.77 99.2822 847.77 96.3723 852.63 95.0623C854.64 95.0423 854.19 96.2723 853.84 97.4523Z" fill="#0D0D0D"/>
<path d="M696.04 412.902C695.62 413.202 695.21 413.512 694.79 413.812C689.15 412.312 683.83 410.042 678.84 407.002C679.32 406.372 680.04 406.432 680.71 406.322C685.79 408.572 691.28 409.872 696.04 412.902Z" fill="#151515"/>
<path d="M419.75 708.842C420.07 709.192 420.39 709.552 420.71 709.902C417.35 714.522 414 719.152 410.64 723.772C411.61 717.382 415.93 713.282 419.75 708.842Z" fill="#191919"/>
<path d="M365.73 871.652C360.03 872.632 354.46 874.622 348.52 873.992C352.19 871.612 356.51 871.722 360.53 870.752C362.32 870.732 364.38 869.122 365.73 871.642V871.652Z" fill="#131313"/>
<path d="M840.8 190.242C839.81 188.442 838.57 190.012 837.45 189.992C840.92 186.412 845.5 187.522 849.72 187.062C850.52 188.182 851.77 188.032 852.91 188.182C849.2 190.782 844.9 189.932 840.8 190.252V190.242Z" fill="#1F1F1F"/>
<path d="M234.78 547.992C233.12 551.862 229.71 549.062 227.2 549.852C225.28 550.462 222.98 549.852 220.85 549.782C221.26 547.192 223.64 548.432 224.98 547.652C228.28 547.432 231.71 544.772 234.83 548.132L234.78 547.992Z" fill="#141414"/>
<path d="M729.8 184.322C730.53 185.252 731.58 184.972 732.53 185.062C729.16 187.272 727.81 191.672 723.78 193.172C723.51 192.942 723.42 192.702 723.5 192.452C723.58 192.202 723.66 192.082 723.75 192.082C723.58 187.792 727.7 186.842 729.81 184.332L729.8 184.322Z" fill="#1E1E1E"/>
<path d="M864.19 93.4722C865.96 88.6322 869.65 87.1622 872.81 85.2022C873.38 84.8422 874.5 84.8122 874.77 85.9722C875.08 87.2922 874.3 88.8022 873.42 88.8522C869.99 89.0822 867.84 91.8022 864.19 93.4722Z" fill="#0E0E0E"/>
<path d="M224.98 547.652C224.24 549.582 221.88 548.392 220.85 549.782C218.19 550.572 215.52 550.662 212.85 549.782C212.23 549.232 212.24 548.672 212.85 548.112C216.87 547.272 220.89 546.692 224.98 547.642V547.652Z" fill="#090909"/>
<path d="M853.84 97.4522C853.66 96.5422 853.58 95.5822 852.63 95.0622C855.61 92.8822 859.28 92.6122 863.7 90.4022C861.85 95.1022 859.74 97.4522 855.92 96.0522C853.71 95.2422 854.6 97.1622 853.84 97.4422V97.4522Z" fill="#141414"/>
<path d="M225.72 827.962C226.1 827.582 226.48 827.212 226.87 826.832C230.78 826.152 233.97 829.182 237.81 828.972C238.97 828.912 240.35 829.192 239.84 830.912C239.37 832.492 237.66 832.162 236.92 831.752C233.4 829.802 229.4 829.372 225.72 827.962Z" fill="#0F0F0F"/>
<path d="M641.57 383.132C637.31 381.232 633.38 378.802 629.8 375.822C629.8 375.102 629.92 374.542 630.84 375.012C635.25 376.632 639.1 379.202 642.75 382.102C642.85 383.002 642.62 383.532 641.58 383.142L641.57 383.132Z" fill="#121212"/>
<path d="M680.71 406.322C680.09 406.552 679.47 406.772 678.84 407.002C675.51 405.372 672.19 403.692 668.83 402.122C667.95 401.712 667.29 401.192 667.85 400.342C668.4 399.512 669.28 399.342 670.33 400.002C673.75 402.172 677.24 404.222 680.7 406.322H680.71Z" fill="#0F0F0F"/>
<path d="M276.46 688.492C276.54 693.982 273.61 698.232 269.79 698.572C271.74 695.182 273.17 691.662 276.46 688.492Z" fill="#1B1B1B"/>
<path d="M656.83 392.972C661.09 393.622 663.91 396.612 666.89 399.382C662.3 399.432 659.45 396.402 656.57 393.412C656.66 393.262 656.74 393.122 656.83 392.972Z" fill="#131313"/>
<path d="M910.71 173.062C910.71 172.792 910.71 172.522 910.71 172.252C913.26 169.882 916.22 169.702 919.38 170.642H919.79L919.39 170.572C918.9 173.562 915.03 174.682 910.71 173.072V173.062Z" fill="#101010"/>
<path d="M285.83 166.322C285.83 166.832 285.83 167.342 285.83 167.852C281.94 168.382 278.13 168.422 274.66 166.152C275.49 165.112 276.86 165.992 277.78 165.272C280.49 165.402 283.35 164.392 285.82 166.322H285.83Z" fill="#1F1F1F"/>
<path d="M648.08 265.202C647.38 264.832 646.67 264.462 645.97 264.092C648.54 262.082 651.12 260.072 653.69 258.062C654.43 257.472 655.15 257.522 655.86 258.102C653.76 261.012 651.17 263.382 648.07 265.192L648.08 265.202Z" fill="#090909"/>
<path d="M949.82 93.3722C949.8 92.9022 949.79 92.4222 949.77 91.9522C951.2 89.7022 954.53 88.7022 953.79 84.9922C957.67 88.0622 956.52 90.2222 949.81 93.3722H949.82Z" fill="#141414"/>
<path d="M656.57 393.402C652.15 392.602 649.87 388.772 646.6 386.332C646.27 385.802 646.33 385.322 646.79 384.902C650.59 387.022 653.87 389.792 656.83 392.962C656.66 393.062 656.58 393.202 656.57 393.402Z" fill="#090909"/>
<path d="M393.04 861.012C392.62 860.972 392.19 860.932 391.77 860.892C392.86 858.692 396.66 861.242 397.09 857.872H397.54C398.6 857.892 399.6 856.952 400.69 857.712C401.1 858.692 401.98 858.832 402.88 858.942C400.07 861.872 396.73 862.252 393.04 861.012Z" fill="#1A1A1A"/>
<path d="M571.76 818.892C571.4 819.242 571.04 819.602 570.68 819.952C567.58 819.822 564.63 820.632 561.69 821.452C560.52 821.782 559.51 822.042 558.82 820.732C558.59 820.542 558.51 820.342 558.58 820.142C558.65 819.942 558.72 819.832 558.79 819.832C562.99 817.852 567.42 819.082 571.75 818.892H571.76Z" fill="#111111"/>
<path d="M477.75 860.822C480.35 858.722 483.49 857.812 486.6 856.822C487.65 856.262 487.81 856.842 487.76 857.722C484.35 858.952 481.8 862.122 477.85 862.152C477.4 861.742 477.37 861.302 477.75 860.822Z" fill="#111111"/>
<path d="M240.81 830.672C243.72 829.672 246.31 830.112 248.75 832.212C245.36 834.922 243.12 832.582 240.81 830.672Z" fill="#1D1D1D"/>
<path d="M517.6 580.912C520.08 577.932 521.64 574.182 525.09 572.012L524.96 571.962C524.67 576.152 521.73 578.562 518.85 581.012C518.39 581.482 517.97 581.452 517.59 580.912H517.6Z" fill="#1B1B1B"/>
<path d="M558.8 819.832C558.8 820.132 558.81 820.432 558.83 820.732C556.24 822.632 553.01 821.872 550.11 822.672C552.93 821.452 554.74 817.362 558.81 819.832H558.8Z" fill="#131313"/>
<path d="M200.67 815.492C198.73 816.512 192.62 815.082 191.95 813.482C191.8 813.132 191.85 812.472 192.09 812.232C192.75 811.572 193.78 811.622 194.32 812.162C196.09 813.922 198.57 814.262 200.67 815.492Z" fill="#0E0E0E"/>
<path d="M351.61 743.532C350.82 745.042 349.52 744.922 348.2 744.952C345.88 745.012 345.58 743.052 345.35 741.692C345.13 740.382 346.89 740.792 347.34 741.092C348.71 742.022 350.99 741.482 351.61 743.532Z" fill="#030303"/>
<path d="M773.61 139.062C774.32 139.412 775.03 139.752 775.73 140.102C774.26 142.392 772.17 143.912 769.7 144.962C768.98 144.602 768.25 144.252 768.73 143.212C770.36 141.822 771.98 140.442 773.61 139.052V139.062Z" fill="#181818"/>
<path d="M685.69 492.032C686.35 491.762 687.02 491.492 687.68 491.222C689.81 491.942 692 492.542 693.73 494.092C693.98 494.272 694.07 494.452 694 494.652C693.93 494.852 693.85 494.952 693.77 494.952C690.33 496.042 688.02 494.012 685.69 492.032Z" fill="#252525"/>
<path d="M477.75 860.822C477.78 861.262 477.82 861.712 477.85 862.152C475.13 863.252 472.4 864.352 469.68 865.452C469.42 865.302 469.17 865.142 468.93 864.972C470.76 861.222 474.96 862.522 477.75 860.822Z" fill="#191919"/>
<path d="M543.74 549.982C545.08 547.432 545.47 543.962 550.12 543.802C548.6 546.542 547.1 548.572 544.85 550.022C544.47 550.382 544.1 550.352 543.74 549.982Z" fill="#212121"/>
<path d="M212.85 548.122C212.85 548.682 212.85 549.232 212.85 549.792C210.5 549.642 207.6 551.032 206.06 548.612C205.36 547.502 207.27 546.822 208.64 547.112C210.05 547.412 211.44 547.782 212.84 548.112L212.85 548.122Z" fill="#232323"/>
<path d="M365.73 871.652C364.15 870.482 362.26 871.062 360.53 870.762C363.94 870.032 367.29 868.892 370.86 869.192C370.98 869.392 370.96 869.572 370.79 869.722C369.85 872.332 367.15 870.302 365.73 871.652Z" fill="#333333"/>
<path d="M668.81 247.202C668.35 246.782 667.89 246.352 667.43 245.932C669.47 244.922 668.91 241.512 671.77 241.262C671.81 242.152 672.14 242.852 673.01 243.202C671.73 244.662 671.39 247.102 668.81 247.212V247.202Z" fill="#131313"/>
<path d="M467.81 839.832C467.79 840.222 467.77 840.612 467.75 841.002C465.14 841.922 462.59 840.862 459.98 840.602C462.58 840.172 464.99 838.252 467.8 839.832H467.81Z" fill="#111111"/>
<path d="M445.74 588.002C446.75 587.682 445.83 585.562 447.63 585.982V594.612C445.15 592.832 447 589.942 445.74 588.002Z" fill="#040404"/>
<path d="M924.72 169.252C926.93 167.962 929.13 166.672 932.14 167.552C930.34 171.242 927.32 169.982 924.71 169.992C924.37 169.822 924.26 169.662 924.37 169.492C924.48 169.332 924.6 169.242 924.71 169.242L924.72 169.252Z" fill="#232323"/>
<path d="M631.73 277.302C631.83 275.892 630.86 275.082 630 274.212C631.05 272.882 632.1 271.542 633.77 269.412V274.002C633.09 275.102 632.41 276.202 631.73 277.302Z" fill="#373737"/>
<path d="M219.78 765.842C219.78 766.172 219.8 766.502 219.81 766.842C219.22 767.072 218.61 767.532 218.04 767.482C216.11 767.322 214.29 766.712 212.87 765.302C212.74 765.172 213.09 764.172 213.31 764.142C215.17 763.852 216.84 764.402 218.37 765.482C218.74 765.742 219.3 765.722 219.78 765.832V765.842Z" fill="#222222"/>
<path d="M211.08 818.802C210.1 818.712 208.79 817.962 208.83 819.932C206.73 820.022 205.39 818.522 202.95 817.182C206.4 816.942 209.03 816.182 211.07 818.812L211.08 818.802Z" fill="#1F1F1F"/>
<path d="M962.24 153.832C964.59 151.272 967.17 152.632 969.64 153.062C967.37 154.622 964.93 154.462 962.24 153.832Z" fill="#242424"/>
<path d="M754.54 782.932C754.18 780.162 757.26 777.902 755.69 774.962C756.95 774.942 756.83 776.292 757.54 776.822C757.54 777.842 756.51 778.492 756.94 779.882C757.26 780.942 757.83 783.912 754.54 782.942V782.932Z" fill="#B7B7B7"/>
<path d="M203.67 763.142C201.5 764.072 199.55 763.952 197.96 761.992C196.86 762.542 196.73 761.942 196.84 761.052C200.06 760.772 203.14 761.102 205.93 762.922C205.23 763.512 204.46 763.432 203.67 763.132V763.142Z" fill="#131313"/>
<path d="M833.73 717.892C835.68 721.242 832.08 722.592 831.13 724.892C830.99 725.222 829.88 725.492 829.48 724.682C829.3 724.312 829.32 723.432 829.43 723.402C832.17 722.602 831.53 719.082 833.84 717.972L833.74 717.892H833.73Z" fill="#181818"/>
<path d="M985.61 148.912C985.64 149.292 985.67 149.682 985.69 150.062C984.74 151.522 983.55 152.462 981.67 151.972C980.29 151.432 978.58 152.282 977.38 150.962C980.12 150.282 982.87 149.592 985.61 148.912Z" fill="#2C2C2C"/>
<path d="M491.94 161.172C490.88 157.932 492.83 156.552 494.45 154.882C495.4 157.612 494.49 159.532 491.94 161.172Z" fill="#161616"/>
<path d="M719.75 811.922C717.39 811.902 715.04 811.892 712.68 811.872C716.33 810.472 720.11 811.242 723.84 811.232C723.84 811.412 723.82 811.592 723.81 811.772C722.49 812.832 721.14 812.922 719.74 811.932L719.75 811.922Z" fill="#575757"/>
<path d="M561.9 713.912C562.19 713.252 562.48 712.602 562.77 711.942C563.08 712.662 563.68 713.402 563.64 714.102C563.54 715.492 565.59 716.552 564.19 718.012C563.95 718.262 563.25 718.402 562.97 718.242C561.14 717.202 561.9 715.452 561.91 713.912H561.9Z" fill="#232323"/>
<path d="M543.74 549.982C544.11 549.992 544.48 550.012 544.85 550.022C545.08 552.922 541.45 552.942 540.92 555.272C540.53 554.842 540.14 554.412 539.76 553.982C540.82 552.372 541.23 550.132 543.75 549.982H543.74Z" fill="#242424"/>
<path d="M646.79 384.912C646.73 385.392 646.66 385.862 646.6 386.342C644.25 386.322 642.94 384.672 641.57 383.132L642.74 382.092C644.26 382.782 646.01 383.152 646.78 384.912H646.79Z" fill="#252525"/>
<path d="M738.79 789.082C739.47 789.382 740.16 789.682 740.84 789.982C738.78 791.542 736.23 791.652 733.88 792.342C733.44 791.952 733.23 791.472 733.25 790.882C734.48 788.382 736.42 788.082 738.79 789.082Z" fill="#1F1F1F"/>
<path d="M726.69 810.902C729.24 809.252 732.05 810.122 734.76 810.072C735.1 810.282 735.22 810.492 735.11 810.702C735 810.912 734.88 811.022 734.77 811.022C733.7 812.772 732.03 811.312 730.71 811.772C729.51 810.852 727.83 812.112 726.69 810.912V810.902Z" fill="#1D1D1D"/>
<path d="M643.62 816.752C645.47 815.842 647.32 814.922 649.18 814.012C649.43 814.452 649.68 814.892 649.93 815.332C648.01 816.222 646.89 818.462 643.62 816.752Z" fill="#171717"/>
<path d="M658.72 254.112C658.78 254.692 658.85 255.272 658.91 255.852C658.48 255.932 658.04 256.002 657.61 256.082C656.32 257.182 655.04 257.112 653.75 256.072C653.83 255.032 653.9 253.992 653.98 252.952C655.79 252.422 657.36 252.862 658.72 254.122V254.112Z" fill="#858585"/>
<path d="M196.84 761.052C197.21 761.362 197.59 761.682 197.96 761.992C197.86 762.132 197.8 762.302 197.67 762.392C195.67 763.902 193.98 762.442 192.24 761.752C191.99 761.652 191.76 760.682 191.92 760.522C193.74 758.712 195.14 761.302 196.84 761.052Z" fill="#151515"/>
<path d="M660.61 802.832C662.61 801.842 664.81 799.902 665.75 803.922C663.84 804.492 662.2 803.792 660.61 802.832Z" fill="#CDCDCD"/>
<path d="M471.79 633.102C471.43 633.772 471.07 634.432 470.72 635.102C469.37 635.602 468.63 635.402 468.69 633.692C468.74 632.452 468.9 630.952 469.98 630.732C471.32 630.452 470.73 632.602 471.79 633.102Z" fill="#1F1F1F"/>
<path d="M603.75 815.182C605.66 814.282 607.37 812.902 609.61 812.822C610.71 812.322 610.84 812.912 610.72 813.792C608.64 815.242 606.29 815.842 603.8 816.002C603.72 815.732 603.7 815.452 603.75 815.172V815.182Z" fill="#0F0F0F"/>
<path d="M734.48 623.022C734.19 623.422 733.9 623.832 733.61 624.232C732.22 622.072 730.46 620.072 730.53 616.412C732.12 619.052 733.89 620.652 734.48 623.022Z" fill="#141414"/>
<path d="M213.79 608.962C214.49 608.972 215.2 608.992 215.9 609.002C213.86 610.482 211.52 609.852 209.03 610.022C210.29 607.262 211.72 606.602 213.79 608.962Z" fill="#181818"/>
<path d="M726.69 810.902C728.05 811.092 729.58 810.482 730.71 811.762C728.41 811.242 726.11 814.662 723.81 811.762C724.01 811.592 724.02 811.412 723.84 811.222C724.79 811.112 725.74 811.002 726.69 810.902Z" fill="#171717"/>
<path d="M839.67 102.012C840.1 102.422 840.52 102.832 840.95 103.242C839.39 104.182 838.06 105.902 835.84 104.812C836.06 102.362 837.92 102.262 839.67 102.012Z" fill="#2D2D2D"/>
<path d="M734.77 811.022C734.81 810.712 734.81 810.392 734.77 810.082C734.93 810.042 735.12 809.932 735.24 809.982C736.82 810.652 738.03 808.132 739.62 809.462C739.86 809.662 739.92 810.512 739.7 810.752C738.19 812.442 736.44 811.162 734.77 811.032V811.022Z" fill="#010101"/>
<path d="M524.96 571.962L525.09 572.022C524.8 569.252 527.03 568.252 528.71 566.862C529 567.222 529.3 567.582 529.59 567.942C528.23 569.502 527.46 571.732 524.96 571.962Z" fill="#242424"/>
<path d="M784.89 125.492C784.59 125.042 784.29 124.602 783.99 124.152C784.85 121.802 785.21 119.242 786.73 117.152C787.46 118.112 787.3 119.132 786.89 120.152C786.22 121.932 785.56 123.712 784.89 125.492Z" fill="#131313"/>
<path d="M586.57 820.342C587.19 824.092 584.5 823.452 581.96 824.282C582.68 821.022 585.21 821.542 586.55 820.452L586.57 820.352V820.342Z" fill="#232323"/>
<path d="M621.65 370.102C621.99 369.812 622.34 369.532 622.68 369.242C624.43 369.622 626.06 370.182 626.92 371.942C626.78 372.582 626.38 372.942 625.75 373.052C624.68 371.662 622.5 371.802 621.65 370.102Z" fill="#393939"/>
<path d="M625.75 373.052L626.92 371.942C628.5 372.612 630.01 373.362 630.84 375.002C630.49 375.272 630.15 375.542 629.8 375.812C628.45 374.892 627.1 373.972 625.75 373.052Z" fill="#1A1A1A"/>
<path d="M591.65 817.102C592.72 816.742 593.79 816.392 594.86 816.032C597.24 820.102 593.19 818.942 591.73 819.872C591.48 819.602 591.4 819.342 591.49 819.092C591.58 818.842 591.67 818.712 591.76 818.712C591.72 818.172 591.69 817.642 591.65 817.102Z" fill="#939393"/>
<path d="M708.18 210.252C708.32 213.922 706.13 214.322 705.31 214.722C705.77 214.002 706.77 212.452 708.18 210.252Z" fill="#0A0A0A"/>
<path d="M722.91 194.152C722.58 194.472 722.29 195.022 721.92 195.072C720.69 195.222 720.66 198.162 719.22 196.712C717.69 195.172 719.25 193.972 720.78 193.232C721.46 193.612 722.45 193.262 722.91 194.162V194.152Z" fill="#202020"/>
<path d="M596.61 815.012C598.03 815.072 598.81 816.182 599.8 816.952C599.34 817.992 598.71 819.322 597.49 818.832C595.75 818.142 596.96 816.302 596.61 815.012Z" fill="#363636"/>
<path d="M658.72 254.112C657.14 253.722 655.56 253.332 653.98 252.942C655.3 251.342 657.03 251.772 658.72 251.992C658.72 252.702 658.72 253.412 658.72 254.112Z" fill="#353535"/>
<path d="M924.72 169.252C924.72 169.502 924.72 169.752 924.72 169.992C923.07 171.312 921.55 173.872 919.4 170.572V170.642C921.18 170.172 922.95 169.712 924.73 169.252H924.72Z" fill="#2D2D2D"/>
<path d="M576.13 826.032C574.95 825.712 574.74 824.832 574.84 823.772H579.88C578.54 825.262 577.67 826.112 576.14 826.032H576.13Z" fill="#2D2D2D"/>
<path d="M597.83 370.432C598.46 372.352 598.13 373.902 596.27 374.982C594.84 372.782 596.59 371.652 597.83 370.432Z" fill="#242424"/>
<path d="M487.76 857.722C487.37 857.422 486.99 857.122 486.6 856.822C488.55 855.512 490.32 853.432 493.05 855.202L492.99 855.162C491.25 856.012 489.51 856.862 487.76 857.712V857.722Z" fill="#181818"/>
<path d="M733.75 790.942C733.8 791.412 733.84 791.872 733.89 792.342C733.28 793.682 732.06 793.882 730.8 794.012C730.14 792.882 728.93 793.242 727.96 792.972C728.87 789.382 731.47 790.612 733.76 790.942H733.75Z" fill="#252525"/>
<path d="M978.16 85.4323C975.66 86.4123 973.85 86.5723 971.66 85.8923C973.6 82.5723 975.55 84.5823 978.16 85.4323Z" fill="#090909"/>
<path d="M977.38 150.962C978.79 151.382 980.47 150.682 981.67 151.972C980.18 151.882 977.97 154.852 977.38 150.962Z" fill="#1D1D1D"/>
<path d="M461.72 29.2122C460.86 27.4022 458.79 25.1622 463.14 25.1922C463.78 26.9222 461.88 27.7622 461.72 29.2122Z" fill="#B8B8B8"/>
<path d="M441.98 74.1422C441.93 72.1122 440.56 69.2122 444.74 70.0022C443.33 71.0522 443.7 73.2922 441.98 74.1422Z" fill="#CACACA"/>
<path d="M650.74 812.572C651.59 811.242 652.34 810.252 653.71 810.162C653.93 810.152 654.47 810.942 654.39 811.202C653.86 812.802 652.83 813.532 650.75 812.572H650.74Z" fill="#3D3D3D"/>
<path d="M981.8 88.6522C982.51 86.7622 984.2 87.1522 985.39 86.6222C985.45 87.2422 985.81 88.1522 985.53 88.4322C984.43 89.5422 983.14 89.3222 981.8 88.6522Z" fill="#202020"/>
<path d="M818.8 195.112C820.53 194.342 823.13 194.182 821.63 191.122C822 191.122 822.38 191.102 822.75 191.092C824.42 192.142 824.12 193.162 822.7 194.172C821.65 195.532 820.15 194.982 818.8 195.112Z" fill="#FAFAFA"/>
<path d="M517.6 580.912C518.02 580.942 518.44 580.972 518.86 581.012C518.14 582.792 517.54 584.682 515.06 585.222C514.56 582.912 517.07 582.452 517.6 580.912Z" fill="#131313"/>
<path d="M822.7 194.172C822.72 193.142 822.73 192.122 822.75 191.092C823.83 191.272 825.66 190.102 825.78 192.022C825.89 193.682 824.42 194.422 822.7 194.172Z" fill="#383838"/>
<path d="M189.05 760.672C186.84 761.022 185.11 761.502 183.49 759.422C185.54 758.522 187.06 758.972 189.05 760.672Z" fill="#1A1A1A"/>
<path d="M450.95 841.972C450.76 841.102 449.11 840.162 450.96 839.382C452.47 838.742 453.25 839.612 453.61 841.002C452.85 841.662 452.04 842.202 450.95 841.972Z" fill="#BABABA"/>
<path d="M786.89 120.152C786.84 119.152 786.78 118.152 786.73 117.152C786.94 115.812 786.15 114.322 787.67 112.742C787.54 115.512 788.48 117.922 786.9 120.162L786.89 120.152Z" fill="#B6B6B6"/>
<path d="M618.93 595.852C616.9 597.612 618.63 600.132 617.67 602.112C616.5 600.332 617.13 598.282 616.93 596.382C616.74 594.602 617.86 594.582 618.93 595.852Z" fill="#3E3E3E"/>
<path d="M650.73 711.692C651.18 711.412 651.62 711.132 652.07 710.852C652.97 711.632 653.96 709.132 654.78 710.892C655.04 711.442 655.31 712.362 655.04 712.722C654.07 714.042 653.51 712.222 652.63 712.212C652 712.212 651.36 711.872 650.73 711.692Z" fill="#2E2E2E"/>
<path d="M738.92 694.882C738.43 694.942 737.94 694.992 737.46 695.052C736.69 693.702 735.46 692.522 735.96 690.372C737.67 691.592 738.45 693.122 738.93 694.882H738.92Z" fill="#020202"/>
<path d="M653.75 256.062C655.04 256.062 656.32 256.062 657.61 256.072C658.02 257.602 657.49 258.312 655.87 258.102C655.15 258.092 654.42 258.072 653.7 258.062C653.72 257.392 653.74 256.732 653.76 256.062H653.75Z" fill="#121212"/>
<path d="M768.74 143.212C769.07 143.792 769.39 144.372 769.71 144.962C768.55 145.232 768.87 146.322 768.55 147.062C767.28 147.762 766.47 147.712 766.65 145.952C767.6 145.232 767.23 143.512 768.73 143.222L768.74 143.212Z" fill="#0B0B0B"/>
<path d="M203.57 548.432C202.3 549.422 200.78 549.022 197.92 548.782C200.52 547.982 201.86 547.562 203.21 547.142L203.57 548.422V548.432Z" fill="#1F1F1F"/>
<path d="M479.64 2.26224C480.41 2.12224 481.32 2.26224 481.69 1.28224C482.85 1.10224 483.92 1.09224 484.56 2.74224C482.71 3.08224 481.1 3.91224 479.64 2.25224V2.26224Z" fill="#585858"/>
<path d="M895.54 855.932L895.19 855.962L894.84 855.922C893.38 854.632 893.27 853.112 894.05 851.342C895.24 852.692 895.37 854.312 895.54 855.932Z" fill="#212121"/>
<path d="M277.79 165.272C276.95 166.272 275.77 166.072 274.67 166.152C273.71 165.742 272.74 165.332 271.39 164.752C274.16 163.202 275.83 165.322 277.79 165.272Z" fill="#111111"/>
<path d="M482.12 847.392C481.45 848.832 480.41 849.322 479.02 848.672C478.79 848.572 478.62 847.702 478.79 847.482C479.82 846.192 480.97 847.132 482.11 847.392H482.12Z" fill="#272727"/>
<path d="M591.76 818.712C591.76 819.102 591.74 819.492 591.73 819.882C590.01 820.092 588.62 823.752 586.57 820.362C586.57 820.362 586.56 820.472 586.55 820.462C588.02 819.092 590.55 820.892 591.75 818.712H591.76Z" fill="#404040"/>
<path d="M547.23 824.742C546.35 824.742 545.59 824.512 545.8 823.772C545.99 823.112 546.69 822.592 547.17 822.002C547.63 822.422 548.52 822.982 548.45 823.242C548.27 823.852 547.61 824.312 547.24 824.732L547.23 824.742Z" fill="#2A2A2A"/>
<path d="M296.97 115.012C296.6 115.332 296.23 115.652 295.87 115.972C294.59 116.142 293.73 115.592 293.12 114.382C294.54 114.132 295.94 113.362 296.98 115.022L296.97 115.012Z" fill="#373737"/>
<path d="M834.63 138.892C834.57 140.092 834.73 140.882 833.78 140.752C833.46 140.712 833.05 140.192 832.97 139.822C832.83 139.212 832.95 138.502 833.82 138.552C834.23 138.572 834.63 138.892 834.63 138.902V138.892Z" fill="#D1D1D1"/>
<path d="M509.9 593.372C509.82 592.122 509.74 590.882 509.66 589.632C510.23 589.122 510.97 588.082 511.34 588.192C512.46 588.552 512.12 589.442 511.32 589.902C509.9 590.722 511.18 592.552 509.9 593.362V593.372Z" fill="#020202"/>
<path d="M734.76 94.1422C734.49 93.5022 734.23 92.8622 733.96 92.2222C734.29 91.2222 734.22 90.0222 735.61 89.2422C736.03 91.1322 736.17 92.7422 734.76 94.1422Z" fill="#3F3F3F"/>
<path d="M486.58 847.582C487.71 846.392 488.64 845.602 490.01 846.442C490.29 846.612 490.49 847.542 490.41 847.592C489.24 848.302 488.05 848.212 486.58 847.582Z" fill="#050505"/>
<path d="M770.46 781.792C770.03 782.632 769.32 782.942 768.45 782.692C768.12 782.602 766.94 783.022 767.68 781.842C768.17 781.072 768.84 780.702 769.73 780.892C770.14 780.982 770.75 781.062 770.46 781.782V781.792Z" fill="#212121"/>
<path d="M746.67 810.462C746.92 811.542 746.62 811.922 745.78 811.922C744.8 811.922 744.3 811.172 744.01 810.492C743.9 810.242 744.73 809.602 745.13 809.132C745.7 809.632 746.27 810.122 746.66 810.462H746.67Z" fill="#0F0F0F"/>
<path d="M617.75 810.932C617.41 807.442 620.06 808.152 622.02 807.882C620.87 809.292 619.68 810.632 617.75 810.932Z" fill="#050505"/>
<path d="M766.65 145.942C767.01 146.782 767.74 146.982 768.55 147.052C767.64 147.782 766.74 148.522 765.83 149.252C765.52 148.552 765.21 147.852 764.9 147.152C765.14 146.252 765.95 146.172 766.65 145.932V145.942Z" fill="#2D2D2D"/>
<path d="M833.84 717.972C833.52 716.602 833.45 715.262 834.67 714.102C834.5 715.382 835.55 716.862 833.73 717.892L833.83 717.972H833.84Z" fill="#373737"/>
<path d="M722.91 194.152C722.2 193.842 721.49 193.532 720.78 193.222C721.63 192.482 722.41 191.572 723.74 192.072C723.75 192.432 723.76 192.802 723.78 193.162C723.49 193.492 723.2 193.822 722.91 194.152Z" fill="#0F0F0F"/>
<path d="M203.67 763.142C204.42 763.072 205.18 763.002 205.93 762.932C206.39 763.002 207.05 762.912 207.26 763.172C207.92 763.992 206.88 764.342 206.53 764.402C205.38 764.582 204.47 763.922 203.67 763.142Z" fill="#757575"/>
<path d="M490.79 840.232C490.66 841.852 490 841.952 489.37 841.882C488.88 841.832 487.89 842.172 488.1 841.152C488.28 840.312 489.07 839.882 489.97 839.982C490.42 840.032 490.86 840.252 490.79 840.232Z" fill="#040404"/>
<path d="M892.34 841.092C892.85 843.022 892.83 844.252 892.25 845.662C891.54 844.062 891.47 842.702 892.34 841.092Z" fill="#838383"/>
<path d="M610.72 813.792C610.35 813.472 609.98 813.142 609.61 812.822C610.52 811.662 611.67 811.422 613.01 811.942C612.8 813.252 611.84 813.622 610.72 813.802V813.792Z" fill="#393939"/>
<path d="M493.05 855.202C492.33 852.662 494.19 852.702 495.72 852.032C496.07 854.642 493.26 853.582 492.99 855.162L493.06 855.202H493.05Z" fill="#373737"/>
<path d="M282.77 523.962C282.74 524.882 282.7 526.342 281.52 525.792C280.22 525.182 280.43 523.792 281.71 522.872C282.06 523.232 282.42 523.602 282.77 523.962Z" fill="#AAAAAA"/>
<path d="M941.59 61.0022C941.22 61.3022 940.8 61.8922 940.28 62.0022C939.74 62.1122 938.85 61.8322 939.17 60.9922C939.33 60.5722 940.08 60.3322 940.61 60.1122C941.16 59.8822 941.43 60.2422 941.58 61.0022H941.59Z" fill="#070707"/>
<path d="M316.8 868.922C316.42 868.922 316.04 868.912 315.66 868.902C315.05 868.882 314.27 868.832 314.59 868.002C314.75 867.572 315.57 867.082 316.04 867.132C317.13 867.232 316.88 868.172 316.8 868.922Z" fill="#A3A3A3"/>
<path d="M693.76 494.962C693.79 494.672 693.77 494.392 693.72 494.112C694.64 494.002 695.74 493.622 695.74 495.152C695.74 495.662 696.1 496.692 695.19 496.572C694.65 496.502 694.23 495.522 693.75 494.962H693.76Z" fill="#151515"/>
<path d="M487.19 54.4922C487.56 52.5822 488.5 51.2822 489.22 51.4822C490.95 51.9822 489.46 52.7822 488.99 53.3622C488.72 53.6822 488.25 53.8422 487.19 54.4922Z" fill="#666666"/>
<path d="M830.47 519.142C830.9 518.732 831.34 518.332 831.77 517.922C832.62 518.542 833.47 519.162 834.63 518.802C834.67 519.172 834.71 519.542 834.75 519.912C833.29 519.842 831.66 520.742 830.48 519.142H830.47Z" fill="#2B2B2B"/>
<path d="M449.71 46.9423C452.76 40.1323 453.5 32.3523 458.82 25.0623C457.8 34.2923 453.49 40.9223 450.64 48.0823C449.74 48.1823 449.16 48.0223 449.71 46.9423Z" fill="#F0F0F0"/>
<path d="M449.71 46.9423C450.02 47.3223 450.33 47.7023 450.64 48.0823C450.06 51.7123 448.73 55.0623 446.85 58.2023C446.27 58.0723 445.94 57.7123 445.85 57.1323C446.41 53.4623 447.91 50.1423 449.72 46.9423H449.71Z" fill="#DEDEDE"/>
<path d="M405.36 139.812C405.95 141.302 406.02 142.372 404.74 143.012C404.03 143.372 403.92 142.752 403.8 142.372C403.36 140.922 405.03 140.732 405.36 139.822V139.812Z" fill="#C6C6C6"/>
<path d="M445.84 57.1422C446.17 57.5022 446.51 57.8522 446.84 58.2122C446.66 59.0422 446.14 60.2422 445.43 59.7722C444.39 59.0822 444.54 57.8522 445.84 57.1422Z" fill="#FCFCFC"/>
<path d="M733.75 790.942C731.82 791.622 729.89 792.292 727.95 792.972C721.72 794.502 715.2 794.002 709.12 797.332C704.86 799.662 699.44 801.512 694.07 798.362C695.94 796.412 698.3 796.222 700.64 795.672C703.47 795.012 707.48 796.312 708.44 791.732C708.47 791.592 709.93 791.762 710.73 791.792C711.02 791.632 711.31 791.592 711.61 791.662C711.76 791.042 711.12 790.982 710.88 790.642C710.74 787.242 708.32 786.922 706.82 788.842C702.98 793.762 697.13 793.442 692.15 795.262C689.92 796.072 687.41 796.332 685.04 796.902C682.72 797.462 680.22 798.252 677.89 796.402C675.36 794.392 672.52 795.662 669.78 795.922C668.38 796.052 666.91 795.822 666.85 794.092C666.8 792.682 668.09 792.532 669.31 792.282C677.4 790.592 685.16 787.572 693.38 786.312C695.24 786.022 696.9 785.872 698.7 786.512C699.58 786.832 701.04 787.102 701.55 786.632C707.11 781.612 714.17 783.392 720.58 782.322C722.36 782.022 724.87 781.552 724.63 784.892C726.23 783.772 728 784.812 729.66 784.492C736.72 783.162 743.95 782.872 750.92 780.982C752.54 780.542 753.93 780.752 753.92 782.942C752.69 788.282 747.55 785.652 744.54 787.472C742.88 788.472 740.51 787.792 738.78 789.092C737.31 790.282 735 789.192 733.74 790.952L733.75 790.942Z" fill="#FDFDFD"/>
<path d="M826.49 413.262C832.29 412.512 837.1 409.862 842.58 411.532C838.19 415.302 831.16 416.112 826.49 413.262Z" fill="#F0F0F0"/>
<path d="M856.41 315.902C856.41 316.442 856.42 317.002 856.41 317.002C853.89 317.102 851.88 319.992 849.12 318.372C848.79 318.172 848.68 316.742 848.85 316.662C851.26 315.482 853.83 316.022 856.41 315.902Z" fill="#E9E9E9"/>
<path d="M647.01 799.232C651.4 796.922 655.82 794.882 660.72 794.712C661.83 794.672 664.09 793.562 664.38 796.102C664.63 798.262 662.56 798.122 661.37 798.632C656.73 800.622 651.88 799.922 647 799.232H647.01Z" fill="#F6F6F6"/>
<path d="M710.89 790.622C711.72 790.232 712.74 789.232 713.38 790.412C713.67 790.942 713.06 792.412 712.43 792.892C711.57 793.552 711.37 792.112 710.75 791.782C710.8 791.402 710.85 791.012 710.9 790.632L710.89 790.622Z" fill="#191919"/>
<path d="M400.69 857.712C399.62 857.502 398.64 858.742 397.54 857.882C398.5 856.072 399.5 855.172 400.69 857.712Z" fill="#F3F3F3"/>
<path d="M716.06 789.482C716.91 787.992 718.13 787.642 719.69 788.152C718.88 789.712 717.73 790.262 716.06 789.482Z" fill="#414141"/>
</svg>
